<mxfile host="app.diagrams.net" modified="2024-04-24T18:23:54.112Z" agent="Mozilla/5.0 (X11; Linux x86_64; rv:125.0) Gecko/20100101 Firefox/125.0" etag="ooLFL_KfN9PhTstqDYuc" version="24.3.0" type="google">
  <diagram name="Page-1" id="hI4rg7PbsgpV7Bm4RIcV">
    <mxGraphModel grid="1" page="1" gridSize="10" guides="1" tooltips="1" connect="1" arrows="1" fold="1" pageScale="1" pageWidth="3300" pageHeight="4681" math="1" shadow="0">
      <root>
        <mxCell id="0" />
        <mxCell id="1" parent="0" />
        <mxCell id="w8XHvRQ3OK808wwk4YDb-2" value="&lt;div&gt;3&lt;/div&gt;" style="whiteSpace=wrap;html=1;aspect=fixed;fillColor=#dae8fc;strokeColor=#6c8ebf;" vertex="1" parent="1">
          <mxGeometry x="3040" y="320" width="50" height="50" as="geometry" />
        </mxCell>
        <mxCell id="w8XHvRQ3OK808wwk4YDb-5" value="" style="endArrow=classic;html=1;rounded=0;" edge="1" parent="1">
          <mxGeometry width="50" height="50" relative="1" as="geometry">
            <mxPoint x="3050" y="300" as="sourcePoint" />
            <mxPoint x="3050" y="320" as="targetPoint" />
            <Array as="points">
              <mxPoint x="3050" y="310" />
            </Array>
          </mxGeometry>
        </mxCell>
        <mxCell id="w8XHvRQ3OK808wwk4YDb-6" value="" style="endArrow=classic;html=1;rounded=0;" edge="1" parent="1">
          <mxGeometry width="50" height="50" relative="1" as="geometry">
            <mxPoint x="3064.85" y="300" as="sourcePoint" />
            <mxPoint x="3064.85" y="320" as="targetPoint" />
            <Array as="points">
              <mxPoint x="3064.85" y="310" />
            </Array>
          </mxGeometry>
        </mxCell>
        <mxCell id="w8XHvRQ3OK808wwk4YDb-7" value="" style="endArrow=classic;html=1;rounded=0;entryX=1;entryY=0.5;entryDx=0;entryDy=0;" edge="1" parent="1" target="w8XHvRQ3OK808wwk4YDb-2">
          <mxGeometry width="50" height="50" relative="1" as="geometry">
            <mxPoint x="3120" y="345" as="sourcePoint" />
            <mxPoint x="3110" y="350" as="targetPoint" />
            <Array as="points" />
          </mxGeometry>
        </mxCell>
        <mxCell id="w8XHvRQ3OK808wwk4YDb-8" value="&lt;div&gt;$$C_{in}$$&lt;/div&gt;" style="text;html=1;align=center;verticalAlign=middle;resizable=0;points=[];autosize=1;strokeColor=none;fillColor=none;" vertex="1" parent="1">
          <mxGeometry x="3090" y="330" width="80" height="30" as="geometry" />
        </mxCell>
        <mxCell id="w8XHvRQ3OK808wwk4YDb-9" value="&lt;div&gt;M&lt;/div&gt;" style="text;html=1;align=center;verticalAlign=middle;resizable=0;points=[];autosize=1;strokeColor=none;fillColor=none;" vertex="1" parent="1">
          <mxGeometry x="3060" y="300" width="30" height="30" as="geometry" />
        </mxCell>
        <mxCell id="w8XHvRQ3OK808wwk4YDb-10" value="" style="endArrow=classic;html=1;rounded=0;exitX=0.5;exitY=1;exitDx=0;exitDy=0;" edge="1" parent="1" source="w8XHvRQ3OK808wwk4YDb-2">
          <mxGeometry width="50" height="50" relative="1" as="geometry">
            <mxPoint x="3000" y="390" as="sourcePoint" />
            <mxPoint x="3065" y="510" as="targetPoint" />
          </mxGeometry>
        </mxCell>
        <mxCell id="w8XHvRQ3OK808wwk4YDb-11" value="&lt;div&gt;3&lt;/div&gt;" style="whiteSpace=wrap;html=1;aspect=fixed;fillColor=#dae8fc;strokeColor=#6c8ebf;" vertex="1" parent="1">
          <mxGeometry x="2910" y="320" width="50" height="50" as="geometry" />
        </mxCell>
        <mxCell id="w8XHvRQ3OK808wwk4YDb-12" value="" style="endArrow=classic;html=1;rounded=0;" edge="1" parent="1">
          <mxGeometry width="50" height="50" relative="1" as="geometry">
            <mxPoint x="2920" y="300" as="sourcePoint" />
            <mxPoint x="2920" y="320" as="targetPoint" />
            <Array as="points">
              <mxPoint x="2920" y="310" />
            </Array>
          </mxGeometry>
        </mxCell>
        <mxCell id="w8XHvRQ3OK808wwk4YDb-13" value="" style="endArrow=classic;html=1;rounded=0;" edge="1" parent="1">
          <mxGeometry width="50" height="50" relative="1" as="geometry">
            <mxPoint x="2934.85" y="300" as="sourcePoint" />
            <mxPoint x="2934.85" y="320" as="targetPoint" />
            <Array as="points">
              <mxPoint x="2934.85" y="310" />
            </Array>
          </mxGeometry>
        </mxCell>
        <mxCell id="w8XHvRQ3OK808wwk4YDb-14" value="" style="endArrow=classic;html=1;rounded=0;entryX=1;entryY=0.5;entryDx=0;entryDy=0;" edge="1" parent="1" target="w8XHvRQ3OK808wwk4YDb-11">
          <mxGeometry width="50" height="50" relative="1" as="geometry">
            <mxPoint x="2990" y="345" as="sourcePoint" />
            <mxPoint x="2980" y="350" as="targetPoint" />
            <Array as="points" />
          </mxGeometry>
        </mxCell>
        <mxCell id="w8XHvRQ3OK808wwk4YDb-15" value="&lt;div&gt;0&lt;/div&gt;" style="text;html=1;align=center;verticalAlign=middle;resizable=0;points=[];autosize=1;strokeColor=none;fillColor=none;" vertex="1" parent="1">
          <mxGeometry x="2985" y="330" width="30" height="30" as="geometry" />
        </mxCell>
        <mxCell id="w8XHvRQ3OK808wwk4YDb-16" value="&lt;div&gt;M&lt;/div&gt;" style="text;html=1;align=center;verticalAlign=middle;resizable=0;points=[];autosize=1;strokeColor=none;fillColor=none;" vertex="1" parent="1">
          <mxGeometry x="2930" y="300" width="30" height="30" as="geometry" />
        </mxCell>
        <mxCell id="w8XHvRQ3OK808wwk4YDb-17" value="&lt;div&gt;3&lt;/div&gt;" style="whiteSpace=wrap;html=1;aspect=fixed;fillColor=#dae8fc;strokeColor=#6c8ebf;" vertex="1" parent="1">
          <mxGeometry x="2910" y="390" width="50" height="50" as="geometry" />
        </mxCell>
        <mxCell id="w8XHvRQ3OK808wwk4YDb-18" value="" style="endArrow=classic;html=1;rounded=0;" edge="1" parent="1">
          <mxGeometry width="50" height="50" relative="1" as="geometry">
            <mxPoint x="2920" y="370" as="sourcePoint" />
            <mxPoint x="2920" y="390" as="targetPoint" />
            <Array as="points">
              <mxPoint x="2920" y="380" />
            </Array>
          </mxGeometry>
        </mxCell>
        <mxCell id="w8XHvRQ3OK808wwk4YDb-19" value="" style="endArrow=classic;html=1;rounded=0;" edge="1" parent="1">
          <mxGeometry width="50" height="50" relative="1" as="geometry">
            <mxPoint x="2934.85" y="370" as="sourcePoint" />
            <mxPoint x="2934.85" y="390" as="targetPoint" />
            <Array as="points">
              <mxPoint x="2934.85" y="380" />
            </Array>
          </mxGeometry>
        </mxCell>
        <mxCell id="w8XHvRQ3OK808wwk4YDb-20" value="" style="endArrow=classic;html=1;rounded=0;entryX=1;entryY=0.5;entryDx=0;entryDy=0;" edge="1" parent="1" target="w8XHvRQ3OK808wwk4YDb-17">
          <mxGeometry width="50" height="50" relative="1" as="geometry">
            <mxPoint x="2990" y="415" as="sourcePoint" />
            <mxPoint x="2980" y="420" as="targetPoint" />
            <Array as="points" />
          </mxGeometry>
        </mxCell>
        <mxCell id="w8XHvRQ3OK808wwk4YDb-21" value="&lt;div&gt;1&lt;/div&gt;" style="text;html=1;align=center;verticalAlign=middle;resizable=0;points=[];autosize=1;strokeColor=none;fillColor=none;" vertex="1" parent="1">
          <mxGeometry x="2985" y="400" width="30" height="30" as="geometry" />
        </mxCell>
        <mxCell id="w8XHvRQ3OK808wwk4YDb-23" value="" style="endArrow=classic;html=1;rounded=0;exitX=0.25;exitY=1;exitDx=0;exitDy=0;" edge="1" parent="1" source="w8XHvRQ3OK808wwk4YDb-17">
          <mxGeometry width="50" height="50" relative="1" as="geometry">
            <mxPoint x="3070" y="480" as="sourcePoint" />
            <mxPoint x="2923" y="460" as="targetPoint" />
          </mxGeometry>
        </mxCell>
        <mxCell id="w8XHvRQ3OK808wwk4YDb-25" value="" style="shape=trapezoid;perimeter=trapezoidPerimeter;whiteSpace=wrap;html=1;fixedSize=1;direction=west;fillColor=#d5e8d4;strokeColor=#82b366;" vertex="1" parent="1">
          <mxGeometry x="2910" y="460" width="50" height="20" as="geometry" />
        </mxCell>
        <mxCell id="w8XHvRQ3OK808wwk4YDb-26" value="" style="endArrow=classic;html=1;rounded=0;exitX=0.75;exitY=1;exitDx=0;exitDy=0;entryX=0.25;entryY=1;entryDx=0;entryDy=0;" edge="1" parent="1" source="w8XHvRQ3OK808wwk4YDb-11" target="w8XHvRQ3OK808wwk4YDb-25">
          <mxGeometry width="50" height="50" relative="1" as="geometry">
            <mxPoint x="3010" y="450" as="sourcePoint" />
            <mxPoint x="3060" y="400" as="targetPoint" />
          </mxGeometry>
        </mxCell>
        <mxCell id="w8XHvRQ3OK808wwk4YDb-27" value="" style="shape=trapezoid;perimeter=trapezoidPerimeter;whiteSpace=wrap;html=1;fixedSize=1;direction=north;fillColor=#d5e8d4;strokeColor=#82b366;" vertex="1" parent="1">
          <mxGeometry x="2870" y="320" width="20" height="120" as="geometry" />
        </mxCell>
        <mxCell id="w8XHvRQ3OK808wwk4YDb-28" value="" style="endArrow=classic;html=1;rounded=0;exitX=0;exitY=0.5;exitDx=0;exitDy=0;entryX=0.793;entryY=0.996;entryDx=0;entryDy=0;entryPerimeter=0;" edge="1" parent="1" source="w8XHvRQ3OK808wwk4YDb-11" target="w8XHvRQ3OK808wwk4YDb-27">
          <mxGeometry width="50" height="50" relative="1" as="geometry">
            <mxPoint x="2980" y="420" as="sourcePoint" />
            <mxPoint x="3030" y="370" as="targetPoint" />
          </mxGeometry>
        </mxCell>
        <mxCell id="w8XHvRQ3OK808wwk4YDb-29" value="" style="endArrow=classic;html=1;rounded=0;exitX=0;exitY=0.5;exitDx=0;exitDy=0;entryX=0.793;entryY=0.996;entryDx=0;entryDy=0;entryPerimeter=0;" edge="1" parent="1">
          <mxGeometry width="50" height="50" relative="1" as="geometry">
            <mxPoint x="2910" y="414.78" as="sourcePoint" />
            <mxPoint x="2890" y="414.78" as="targetPoint" />
          </mxGeometry>
        </mxCell>
        <mxCell id="w8XHvRQ3OK808wwk4YDb-30" value="&lt;div&gt;3&lt;/div&gt;" style="whiteSpace=wrap;html=1;aspect=fixed;fillColor=#dae8fc;strokeColor=#6c8ebf;" vertex="1" parent="1">
          <mxGeometry x="2750" y="320" width="50" height="50" as="geometry" />
        </mxCell>
        <mxCell id="w8XHvRQ3OK808wwk4YDb-31" value="" style="endArrow=classic;html=1;rounded=0;" edge="1" parent="1">
          <mxGeometry width="50" height="50" relative="1" as="geometry">
            <mxPoint x="2760" y="300" as="sourcePoint" />
            <mxPoint x="2760" y="320" as="targetPoint" />
            <Array as="points">
              <mxPoint x="2760" y="310" />
            </Array>
          </mxGeometry>
        </mxCell>
        <mxCell id="w8XHvRQ3OK808wwk4YDb-32" value="" style="endArrow=classic;html=1;rounded=0;" edge="1" parent="1">
          <mxGeometry width="50" height="50" relative="1" as="geometry">
            <mxPoint x="2774.85" y="300" as="sourcePoint" />
            <mxPoint x="2774.85" y="320" as="targetPoint" />
            <Array as="points">
              <mxPoint x="2774.85" y="310" />
            </Array>
          </mxGeometry>
        </mxCell>
        <mxCell id="w8XHvRQ3OK808wwk4YDb-33" value="" style="endArrow=classic;html=1;rounded=0;entryX=1;entryY=0.5;entryDx=0;entryDy=0;" edge="1" parent="1" target="w8XHvRQ3OK808wwk4YDb-30">
          <mxGeometry width="50" height="50" relative="1" as="geometry">
            <mxPoint x="2830" y="345" as="sourcePoint" />
            <mxPoint x="2820" y="350" as="targetPoint" />
            <Array as="points" />
          </mxGeometry>
        </mxCell>
        <mxCell id="w8XHvRQ3OK808wwk4YDb-34" value="&lt;div&gt;0&lt;/div&gt;" style="text;html=1;align=center;verticalAlign=middle;resizable=0;points=[];autosize=1;strokeColor=none;fillColor=none;" vertex="1" parent="1">
          <mxGeometry x="2825" y="330" width="30" height="30" as="geometry" />
        </mxCell>
        <mxCell id="w8XHvRQ3OK808wwk4YDb-35" value="&lt;div&gt;M&lt;/div&gt;" style="text;html=1;align=center;verticalAlign=middle;resizable=0;points=[];autosize=1;strokeColor=none;fillColor=none;" vertex="1" parent="1">
          <mxGeometry x="2770" y="300" width="30" height="30" as="geometry" />
        </mxCell>
        <mxCell id="w8XHvRQ3OK808wwk4YDb-36" value="&lt;div&gt;3&lt;/div&gt;" style="whiteSpace=wrap;html=1;aspect=fixed;fillColor=#dae8fc;strokeColor=#6c8ebf;" vertex="1" parent="1">
          <mxGeometry x="2750" y="390" width="50" height="50" as="geometry" />
        </mxCell>
        <mxCell id="w8XHvRQ3OK808wwk4YDb-37" value="" style="endArrow=classic;html=1;rounded=0;" edge="1" parent="1">
          <mxGeometry width="50" height="50" relative="1" as="geometry">
            <mxPoint x="2760" y="370" as="sourcePoint" />
            <mxPoint x="2760" y="390" as="targetPoint" />
            <Array as="points">
              <mxPoint x="2760" y="380" />
            </Array>
          </mxGeometry>
        </mxCell>
        <mxCell id="w8XHvRQ3OK808wwk4YDb-38" value="" style="endArrow=classic;html=1;rounded=0;" edge="1" parent="1">
          <mxGeometry width="50" height="50" relative="1" as="geometry">
            <mxPoint x="2774.85" y="370" as="sourcePoint" />
            <mxPoint x="2774.85" y="390" as="targetPoint" />
            <Array as="points">
              <mxPoint x="2774.85" y="380" />
            </Array>
          </mxGeometry>
        </mxCell>
        <mxCell id="w8XHvRQ3OK808wwk4YDb-39" value="" style="endArrow=classic;html=1;rounded=0;entryX=1;entryY=0.5;entryDx=0;entryDy=0;" edge="1" parent="1" target="w8XHvRQ3OK808wwk4YDb-36">
          <mxGeometry width="50" height="50" relative="1" as="geometry">
            <mxPoint x="2830" y="415" as="sourcePoint" />
            <mxPoint x="2820" y="420" as="targetPoint" />
            <Array as="points" />
          </mxGeometry>
        </mxCell>
        <mxCell id="w8XHvRQ3OK808wwk4YDb-40" value="&lt;div&gt;1&lt;/div&gt;" style="text;html=1;align=center;verticalAlign=middle;resizable=0;points=[];autosize=1;strokeColor=none;fillColor=none;" vertex="1" parent="1">
          <mxGeometry x="2825" y="400" width="30" height="30" as="geometry" />
        </mxCell>
        <mxCell id="w8XHvRQ3OK808wwk4YDb-41" value="" style="endArrow=classic;html=1;rounded=0;exitX=0.25;exitY=1;exitDx=0;exitDy=0;" edge="1" parent="1" source="w8XHvRQ3OK808wwk4YDb-36">
          <mxGeometry width="50" height="50" relative="1" as="geometry">
            <mxPoint x="2910" y="480" as="sourcePoint" />
            <mxPoint x="2763" y="460" as="targetPoint" />
          </mxGeometry>
        </mxCell>
        <mxCell id="w8XHvRQ3OK808wwk4YDb-42" value="" style="shape=trapezoid;perimeter=trapezoidPerimeter;whiteSpace=wrap;html=1;fixedSize=1;direction=west;fillColor=#d5e8d4;strokeColor=#82b366;" vertex="1" parent="1">
          <mxGeometry x="2750" y="460" width="50" height="20" as="geometry" />
        </mxCell>
        <mxCell id="w8XHvRQ3OK808wwk4YDb-43" value="" style="endArrow=classic;html=1;rounded=0;exitX=0.75;exitY=1;exitDx=0;exitDy=0;entryX=0.25;entryY=1;entryDx=0;entryDy=0;" edge="1" parent="1" source="w8XHvRQ3OK808wwk4YDb-30" target="w8XHvRQ3OK808wwk4YDb-42">
          <mxGeometry width="50" height="50" relative="1" as="geometry">
            <mxPoint x="2850" y="450" as="sourcePoint" />
            <mxPoint x="2900" y="400" as="targetPoint" />
          </mxGeometry>
        </mxCell>
        <mxCell id="w8XHvRQ3OK808wwk4YDb-44" value="" style="shape=trapezoid;perimeter=trapezoidPerimeter;whiteSpace=wrap;html=1;fixedSize=1;direction=north;fillColor=#d5e8d4;strokeColor=#82b366;" vertex="1" parent="1">
          <mxGeometry x="2710" y="320" width="20" height="120" as="geometry" />
        </mxCell>
        <mxCell id="w8XHvRQ3OK808wwk4YDb-45" value="" style="endArrow=classic;html=1;rounded=0;exitX=0;exitY=0.5;exitDx=0;exitDy=0;entryX=0.793;entryY=0.996;entryDx=0;entryDy=0;entryPerimeter=0;" edge="1" parent="1" source="w8XHvRQ3OK808wwk4YDb-30" target="w8XHvRQ3OK808wwk4YDb-44">
          <mxGeometry width="50" height="50" relative="1" as="geometry">
            <mxPoint x="2820" y="420" as="sourcePoint" />
            <mxPoint x="2870" y="370" as="targetPoint" />
          </mxGeometry>
        </mxCell>
        <mxCell id="w8XHvRQ3OK808wwk4YDb-46" value="" style="endArrow=classic;html=1;rounded=0;exitX=0;exitY=0.5;exitDx=0;exitDy=0;entryX=0.793;entryY=0.996;entryDx=0;entryDy=0;entryPerimeter=0;" edge="1" parent="1">
          <mxGeometry width="50" height="50" relative="1" as="geometry">
            <mxPoint x="2750" y="414.78" as="sourcePoint" />
            <mxPoint x="2730" y="414.78" as="targetPoint" />
          </mxGeometry>
        </mxCell>
        <mxCell id="w8XHvRQ3OK808wwk4YDb-62" value="&lt;div&gt;3&lt;/div&gt;" style="whiteSpace=wrap;html=1;aspect=fixed;fillColor=#dae8fc;strokeColor=#6c8ebf;" vertex="1" parent="1">
          <mxGeometry x="2590" y="320" width="50" height="50" as="geometry" />
        </mxCell>
        <mxCell id="w8XHvRQ3OK808wwk4YDb-63" value="" style="endArrow=classic;html=1;rounded=0;" edge="1" parent="1">
          <mxGeometry width="50" height="50" relative="1" as="geometry">
            <mxPoint x="2600" y="300" as="sourcePoint" />
            <mxPoint x="2600" y="320" as="targetPoint" />
            <Array as="points">
              <mxPoint x="2600" y="310" />
            </Array>
          </mxGeometry>
        </mxCell>
        <mxCell id="w8XHvRQ3OK808wwk4YDb-64" value="" style="endArrow=classic;html=1;rounded=0;" edge="1" parent="1">
          <mxGeometry width="50" height="50" relative="1" as="geometry">
            <mxPoint x="2614.85" y="300" as="sourcePoint" />
            <mxPoint x="2614.85" y="320" as="targetPoint" />
            <Array as="points">
              <mxPoint x="2614.85" y="310" />
            </Array>
          </mxGeometry>
        </mxCell>
        <mxCell id="w8XHvRQ3OK808wwk4YDb-65" value="" style="endArrow=classic;html=1;rounded=0;entryX=1;entryY=0.5;entryDx=0;entryDy=0;" edge="1" parent="1" target="w8XHvRQ3OK808wwk4YDb-62">
          <mxGeometry width="50" height="50" relative="1" as="geometry">
            <mxPoint x="2670" y="345" as="sourcePoint" />
            <mxPoint x="2660" y="350" as="targetPoint" />
            <Array as="points" />
          </mxGeometry>
        </mxCell>
        <mxCell id="w8XHvRQ3OK808wwk4YDb-66" value="&lt;div&gt;0&lt;/div&gt;" style="text;html=1;align=center;verticalAlign=middle;resizable=0;points=[];autosize=1;strokeColor=none;fillColor=none;" vertex="1" parent="1">
          <mxGeometry x="2665" y="330" width="30" height="30" as="geometry" />
        </mxCell>
        <mxCell id="w8XHvRQ3OK808wwk4YDb-67" value="&lt;div&gt;M&lt;/div&gt;" style="text;html=1;align=center;verticalAlign=middle;resizable=0;points=[];autosize=1;strokeColor=none;fillColor=none;" vertex="1" parent="1">
          <mxGeometry x="2610" y="300" width="30" height="30" as="geometry" />
        </mxCell>
        <mxCell id="w8XHvRQ3OK808wwk4YDb-68" value="&lt;div&gt;3&lt;/div&gt;" style="whiteSpace=wrap;html=1;aspect=fixed;fillColor=#dae8fc;strokeColor=#6c8ebf;" vertex="1" parent="1">
          <mxGeometry x="2590" y="390" width="50" height="50" as="geometry" />
        </mxCell>
        <mxCell id="w8XHvRQ3OK808wwk4YDb-69" value="" style="endArrow=classic;html=1;rounded=0;" edge="1" parent="1">
          <mxGeometry width="50" height="50" relative="1" as="geometry">
            <mxPoint x="2600" y="370" as="sourcePoint" />
            <mxPoint x="2600" y="390" as="targetPoint" />
            <Array as="points">
              <mxPoint x="2600" y="380" />
            </Array>
          </mxGeometry>
        </mxCell>
        <mxCell id="w8XHvRQ3OK808wwk4YDb-70" value="" style="endArrow=classic;html=1;rounded=0;" edge="1" parent="1">
          <mxGeometry width="50" height="50" relative="1" as="geometry">
            <mxPoint x="2614.85" y="370" as="sourcePoint" />
            <mxPoint x="2614.85" y="390" as="targetPoint" />
            <Array as="points">
              <mxPoint x="2614.85" y="380" />
            </Array>
          </mxGeometry>
        </mxCell>
        <mxCell id="w8XHvRQ3OK808wwk4YDb-71" value="" style="endArrow=classic;html=1;rounded=0;entryX=1;entryY=0.5;entryDx=0;entryDy=0;" edge="1" parent="1" target="w8XHvRQ3OK808wwk4YDb-68">
          <mxGeometry width="50" height="50" relative="1" as="geometry">
            <mxPoint x="2670" y="415" as="sourcePoint" />
            <mxPoint x="2660" y="420" as="targetPoint" />
            <Array as="points" />
          </mxGeometry>
        </mxCell>
        <mxCell id="w8XHvRQ3OK808wwk4YDb-72" value="&lt;div&gt;1&lt;/div&gt;" style="text;html=1;align=center;verticalAlign=middle;resizable=0;points=[];autosize=1;strokeColor=none;fillColor=none;" vertex="1" parent="1">
          <mxGeometry x="2665" y="400" width="30" height="30" as="geometry" />
        </mxCell>
        <mxCell id="w8XHvRQ3OK808wwk4YDb-73" value="" style="endArrow=classic;html=1;rounded=0;exitX=0.25;exitY=1;exitDx=0;exitDy=0;" edge="1" parent="1" source="w8XHvRQ3OK808wwk4YDb-68">
          <mxGeometry width="50" height="50" relative="1" as="geometry">
            <mxPoint x="2750" y="480" as="sourcePoint" />
            <mxPoint x="2603" y="460" as="targetPoint" />
          </mxGeometry>
        </mxCell>
        <mxCell id="w8XHvRQ3OK808wwk4YDb-74" value="" style="shape=trapezoid;perimeter=trapezoidPerimeter;whiteSpace=wrap;html=1;fixedSize=1;direction=west;fillColor=#d5e8d4;strokeColor=#82b366;" vertex="1" parent="1">
          <mxGeometry x="2590" y="460" width="50" height="20" as="geometry" />
        </mxCell>
        <mxCell id="w8XHvRQ3OK808wwk4YDb-75" value="" style="endArrow=classic;html=1;rounded=0;exitX=0.75;exitY=1;exitDx=0;exitDy=0;entryX=0.25;entryY=1;entryDx=0;entryDy=0;" edge="1" parent="1" source="w8XHvRQ3OK808wwk4YDb-62" target="w8XHvRQ3OK808wwk4YDb-74">
          <mxGeometry width="50" height="50" relative="1" as="geometry">
            <mxPoint x="2690" y="450" as="sourcePoint" />
            <mxPoint x="2740" y="400" as="targetPoint" />
          </mxGeometry>
        </mxCell>
        <mxCell id="w8XHvRQ3OK808wwk4YDb-76" value="" style="shape=trapezoid;perimeter=trapezoidPerimeter;whiteSpace=wrap;html=1;fixedSize=1;direction=north;fillColor=#d5e8d4;strokeColor=#82b366;" vertex="1" parent="1">
          <mxGeometry x="2550" y="320" width="20" height="120" as="geometry" />
        </mxCell>
        <mxCell id="w8XHvRQ3OK808wwk4YDb-77" value="" style="endArrow=classic;html=1;rounded=0;exitX=0;exitY=0.5;exitDx=0;exitDy=0;entryX=0.793;entryY=0.996;entryDx=0;entryDy=0;entryPerimeter=0;" edge="1" parent="1" source="w8XHvRQ3OK808wwk4YDb-62" target="w8XHvRQ3OK808wwk4YDb-76">
          <mxGeometry width="50" height="50" relative="1" as="geometry">
            <mxPoint x="2660" y="420" as="sourcePoint" />
            <mxPoint x="2710" y="370" as="targetPoint" />
          </mxGeometry>
        </mxCell>
        <mxCell id="w8XHvRQ3OK808wwk4YDb-78" value="" style="endArrow=classic;html=1;rounded=0;exitX=0;exitY=0.5;exitDx=0;exitDy=0;entryX=0.793;entryY=0.996;entryDx=0;entryDy=0;entryPerimeter=0;" edge="1" parent="1">
          <mxGeometry width="50" height="50" relative="1" as="geometry">
            <mxPoint x="2590" y="414.78" as="sourcePoint" />
            <mxPoint x="2570" y="414.78" as="targetPoint" />
          </mxGeometry>
        </mxCell>
        <mxCell id="w8XHvRQ3OK808wwk4YDb-79" value="5" style="whiteSpace=wrap;html=1;aspect=fixed;fillColor=#dae8fc;strokeColor=#6c8ebf;" vertex="1" parent="1">
          <mxGeometry x="2430" y="320" width="50" height="50" as="geometry" />
        </mxCell>
        <mxCell id="w8XHvRQ3OK808wwk4YDb-80" value="" style="endArrow=classic;html=1;rounded=0;" edge="1" parent="1">
          <mxGeometry width="50" height="50" relative="1" as="geometry">
            <mxPoint x="2440" y="300" as="sourcePoint" />
            <mxPoint x="2440" y="320" as="targetPoint" />
            <Array as="points">
              <mxPoint x="2440" y="310" />
            </Array>
          </mxGeometry>
        </mxCell>
        <mxCell id="w8XHvRQ3OK808wwk4YDb-81" value="" style="endArrow=classic;html=1;rounded=0;" edge="1" parent="1">
          <mxGeometry width="50" height="50" relative="1" as="geometry">
            <mxPoint x="2454.85" y="300" as="sourcePoint" />
            <mxPoint x="2454.85" y="320" as="targetPoint" />
            <Array as="points">
              <mxPoint x="2454.85" y="310" />
            </Array>
          </mxGeometry>
        </mxCell>
        <mxCell id="w8XHvRQ3OK808wwk4YDb-82" value="" style="endArrow=classic;html=1;rounded=0;entryX=1;entryY=0.5;entryDx=0;entryDy=0;" edge="1" parent="1" target="w8XHvRQ3OK808wwk4YDb-79">
          <mxGeometry width="50" height="50" relative="1" as="geometry">
            <mxPoint x="2510" y="345" as="sourcePoint" />
            <mxPoint x="2500" y="350" as="targetPoint" />
            <Array as="points" />
          </mxGeometry>
        </mxCell>
        <mxCell id="w8XHvRQ3OK808wwk4YDb-83" value="&lt;div&gt;0&lt;/div&gt;" style="text;html=1;align=center;verticalAlign=middle;resizable=0;points=[];autosize=1;strokeColor=none;fillColor=none;" vertex="1" parent="1">
          <mxGeometry x="2505" y="330" width="30" height="30" as="geometry" />
        </mxCell>
        <mxCell id="w8XHvRQ3OK808wwk4YDb-84" value="&lt;div&gt;M&lt;/div&gt;" style="text;html=1;align=center;verticalAlign=middle;resizable=0;points=[];autosize=1;strokeColor=none;fillColor=none;" vertex="1" parent="1">
          <mxGeometry x="2450" y="300" width="30" height="30" as="geometry" />
        </mxCell>
        <mxCell id="w8XHvRQ3OK808wwk4YDb-85" value="5" style="whiteSpace=wrap;html=1;aspect=fixed;fillColor=#dae8fc;strokeColor=#6c8ebf;" vertex="1" parent="1">
          <mxGeometry x="2430" y="390" width="50" height="50" as="geometry" />
        </mxCell>
        <mxCell id="w8XHvRQ3OK808wwk4YDb-86" value="" style="endArrow=classic;html=1;rounded=0;" edge="1" parent="1">
          <mxGeometry width="50" height="50" relative="1" as="geometry">
            <mxPoint x="2440" y="370" as="sourcePoint" />
            <mxPoint x="2440" y="390" as="targetPoint" />
            <Array as="points">
              <mxPoint x="2440" y="380" />
            </Array>
          </mxGeometry>
        </mxCell>
        <mxCell id="w8XHvRQ3OK808wwk4YDb-87" value="" style="endArrow=classic;html=1;rounded=0;" edge="1" parent="1">
          <mxGeometry width="50" height="50" relative="1" as="geometry">
            <mxPoint x="2454.85" y="370" as="sourcePoint" />
            <mxPoint x="2454.85" y="390" as="targetPoint" />
            <Array as="points">
              <mxPoint x="2454.85" y="380" />
            </Array>
          </mxGeometry>
        </mxCell>
        <mxCell id="w8XHvRQ3OK808wwk4YDb-88" value="" style="endArrow=classic;html=1;rounded=0;entryX=1;entryY=0.5;entryDx=0;entryDy=0;" edge="1" parent="1" target="w8XHvRQ3OK808wwk4YDb-85">
          <mxGeometry width="50" height="50" relative="1" as="geometry">
            <mxPoint x="2510" y="415" as="sourcePoint" />
            <mxPoint x="2500" y="420" as="targetPoint" />
            <Array as="points" />
          </mxGeometry>
        </mxCell>
        <mxCell id="w8XHvRQ3OK808wwk4YDb-89" value="&lt;div&gt;1&lt;/div&gt;" style="text;html=1;align=center;verticalAlign=middle;resizable=0;points=[];autosize=1;strokeColor=none;fillColor=none;" vertex="1" parent="1">
          <mxGeometry x="2505" y="400" width="30" height="30" as="geometry" />
        </mxCell>
        <mxCell id="w8XHvRQ3OK808wwk4YDb-90" value="" style="endArrow=classic;html=1;rounded=0;exitX=0.25;exitY=1;exitDx=0;exitDy=0;" edge="1" parent="1" source="w8XHvRQ3OK808wwk4YDb-85">
          <mxGeometry width="50" height="50" relative="1" as="geometry">
            <mxPoint x="2590" y="480" as="sourcePoint" />
            <mxPoint x="2443" y="460" as="targetPoint" />
          </mxGeometry>
        </mxCell>
        <mxCell id="w8XHvRQ3OK808wwk4YDb-91" value="" style="shape=trapezoid;perimeter=trapezoidPerimeter;whiteSpace=wrap;html=1;fixedSize=1;direction=west;fillColor=#d5e8d4;strokeColor=#82b366;" vertex="1" parent="1">
          <mxGeometry x="2430" y="460" width="50" height="20" as="geometry" />
        </mxCell>
        <mxCell id="w8XHvRQ3OK808wwk4YDb-92" value="" style="endArrow=classic;html=1;rounded=0;exitX=0.75;exitY=1;exitDx=0;exitDy=0;entryX=0.25;entryY=1;entryDx=0;entryDy=0;" edge="1" parent="1" source="w8XHvRQ3OK808wwk4YDb-79" target="w8XHvRQ3OK808wwk4YDb-91">
          <mxGeometry width="50" height="50" relative="1" as="geometry">
            <mxPoint x="2530" y="450" as="sourcePoint" />
            <mxPoint x="2580" y="400" as="targetPoint" />
          </mxGeometry>
        </mxCell>
        <mxCell id="w8XHvRQ3OK808wwk4YDb-93" value="" style="shape=trapezoid;perimeter=trapezoidPerimeter;whiteSpace=wrap;html=1;fixedSize=1;direction=north;fillColor=#d5e8d4;strokeColor=#82b366;" vertex="1" parent="1">
          <mxGeometry x="2390" y="320" width="20" height="120" as="geometry" />
        </mxCell>
        <mxCell id="w8XHvRQ3OK808wwk4YDb-94" value="" style="endArrow=classic;html=1;rounded=0;exitX=0;exitY=0.5;exitDx=0;exitDy=0;entryX=0.793;entryY=0.996;entryDx=0;entryDy=0;entryPerimeter=0;" edge="1" parent="1" source="w8XHvRQ3OK808wwk4YDb-79" target="w8XHvRQ3OK808wwk4YDb-93">
          <mxGeometry width="50" height="50" relative="1" as="geometry">
            <mxPoint x="2500" y="420" as="sourcePoint" />
            <mxPoint x="2550" y="370" as="targetPoint" />
          </mxGeometry>
        </mxCell>
        <mxCell id="w8XHvRQ3OK808wwk4YDb-95" value="" style="endArrow=classic;html=1;rounded=0;exitX=0;exitY=0.5;exitDx=0;exitDy=0;entryX=0.793;entryY=0.996;entryDx=0;entryDy=0;entryPerimeter=0;" edge="1" parent="1">
          <mxGeometry width="50" height="50" relative="1" as="geometry">
            <mxPoint x="2430" y="414.78" as="sourcePoint" />
            <mxPoint x="2410" y="414.78" as="targetPoint" />
          </mxGeometry>
        </mxCell>
        <mxCell id="w8XHvRQ3OK808wwk4YDb-96" value="7" style="whiteSpace=wrap;html=1;aspect=fixed;fillColor=#dae8fc;strokeColor=#6c8ebf;" vertex="1" parent="1">
          <mxGeometry x="2270" y="320" width="50" height="50" as="geometry" />
        </mxCell>
        <mxCell id="w8XHvRQ3OK808wwk4YDb-97" value="" style="endArrow=classic;html=1;rounded=0;" edge="1" parent="1">
          <mxGeometry width="50" height="50" relative="1" as="geometry">
            <mxPoint x="2280" y="300" as="sourcePoint" />
            <mxPoint x="2280" y="320" as="targetPoint" />
            <Array as="points">
              <mxPoint x="2280" y="310" />
            </Array>
          </mxGeometry>
        </mxCell>
        <mxCell id="w8XHvRQ3OK808wwk4YDb-98" value="" style="endArrow=classic;html=1;rounded=0;" edge="1" parent="1">
          <mxGeometry width="50" height="50" relative="1" as="geometry">
            <mxPoint x="2294.85" y="300" as="sourcePoint" />
            <mxPoint x="2294.85" y="320" as="targetPoint" />
            <Array as="points">
              <mxPoint x="2294.85" y="310" />
            </Array>
          </mxGeometry>
        </mxCell>
        <mxCell id="w8XHvRQ3OK808wwk4YDb-99" value="" style="endArrow=classic;html=1;rounded=0;entryX=1;entryY=0.5;entryDx=0;entryDy=0;" edge="1" parent="1" target="w8XHvRQ3OK808wwk4YDb-96">
          <mxGeometry width="50" height="50" relative="1" as="geometry">
            <mxPoint x="2350" y="345" as="sourcePoint" />
            <mxPoint x="2340" y="350" as="targetPoint" />
            <Array as="points" />
          </mxGeometry>
        </mxCell>
        <mxCell id="w8XHvRQ3OK808wwk4YDb-100" value="&lt;div&gt;0&lt;/div&gt;" style="text;html=1;align=center;verticalAlign=middle;resizable=0;points=[];autosize=1;strokeColor=none;fillColor=none;" vertex="1" parent="1">
          <mxGeometry x="2345" y="330" width="30" height="30" as="geometry" />
        </mxCell>
        <mxCell id="w8XHvRQ3OK808wwk4YDb-101" value="&lt;div&gt;M&lt;/div&gt;" style="text;html=1;align=center;verticalAlign=middle;resizable=0;points=[];autosize=1;strokeColor=none;fillColor=none;" vertex="1" parent="1">
          <mxGeometry x="2290" y="300" width="30" height="30" as="geometry" />
        </mxCell>
        <mxCell id="w8XHvRQ3OK808wwk4YDb-102" value="7" style="whiteSpace=wrap;html=1;aspect=fixed;fillColor=#dae8fc;strokeColor=#6c8ebf;" vertex="1" parent="1">
          <mxGeometry x="2270" y="390" width="50" height="50" as="geometry" />
        </mxCell>
        <mxCell id="w8XHvRQ3OK808wwk4YDb-103" value="" style="endArrow=classic;html=1;rounded=0;" edge="1" parent="1">
          <mxGeometry width="50" height="50" relative="1" as="geometry">
            <mxPoint x="2280" y="370" as="sourcePoint" />
            <mxPoint x="2280" y="390" as="targetPoint" />
            <Array as="points">
              <mxPoint x="2280" y="380" />
            </Array>
          </mxGeometry>
        </mxCell>
        <mxCell id="w8XHvRQ3OK808wwk4YDb-104" value="" style="endArrow=classic;html=1;rounded=0;" edge="1" parent="1">
          <mxGeometry width="50" height="50" relative="1" as="geometry">
            <mxPoint x="2294.85" y="370" as="sourcePoint" />
            <mxPoint x="2294.85" y="390" as="targetPoint" />
            <Array as="points">
              <mxPoint x="2294.85" y="380" />
            </Array>
          </mxGeometry>
        </mxCell>
        <mxCell id="w8XHvRQ3OK808wwk4YDb-105" value="" style="endArrow=classic;html=1;rounded=0;entryX=1;entryY=0.5;entryDx=0;entryDy=0;" edge="1" parent="1" target="w8XHvRQ3OK808wwk4YDb-102">
          <mxGeometry width="50" height="50" relative="1" as="geometry">
            <mxPoint x="2350" y="415" as="sourcePoint" />
            <mxPoint x="2340" y="420" as="targetPoint" />
            <Array as="points" />
          </mxGeometry>
        </mxCell>
        <mxCell id="w8XHvRQ3OK808wwk4YDb-106" value="&lt;div&gt;1&lt;/div&gt;" style="text;html=1;align=center;verticalAlign=middle;resizable=0;points=[];autosize=1;strokeColor=none;fillColor=none;" vertex="1" parent="1">
          <mxGeometry x="2345" y="400" width="30" height="30" as="geometry" />
        </mxCell>
        <mxCell id="w8XHvRQ3OK808wwk4YDb-107" value="" style="endArrow=classic;html=1;rounded=0;exitX=0.25;exitY=1;exitDx=0;exitDy=0;" edge="1" parent="1" source="w8XHvRQ3OK808wwk4YDb-102">
          <mxGeometry width="50" height="50" relative="1" as="geometry">
            <mxPoint x="2430" y="480" as="sourcePoint" />
            <mxPoint x="2283" y="460" as="targetPoint" />
          </mxGeometry>
        </mxCell>
        <mxCell id="w8XHvRQ3OK808wwk4YDb-108" value="" style="shape=trapezoid;perimeter=trapezoidPerimeter;whiteSpace=wrap;html=1;fixedSize=1;direction=west;fillColor=#d5e8d4;strokeColor=#82b366;" vertex="1" parent="1">
          <mxGeometry x="2270" y="460" width="50" height="20" as="geometry" />
        </mxCell>
        <mxCell id="w8XHvRQ3OK808wwk4YDb-109" value="" style="endArrow=classic;html=1;rounded=0;exitX=0.75;exitY=1;exitDx=0;exitDy=0;entryX=0.25;entryY=1;entryDx=0;entryDy=0;" edge="1" parent="1" source="w8XHvRQ3OK808wwk4YDb-96" target="w8XHvRQ3OK808wwk4YDb-108">
          <mxGeometry width="50" height="50" relative="1" as="geometry">
            <mxPoint x="2370" y="450" as="sourcePoint" />
            <mxPoint x="2420" y="400" as="targetPoint" />
          </mxGeometry>
        </mxCell>
        <mxCell id="w8XHvRQ3OK808wwk4YDb-110" value="" style="shape=trapezoid;perimeter=trapezoidPerimeter;whiteSpace=wrap;html=1;fixedSize=1;direction=north;fillColor=#d5e8d4;strokeColor=#82b366;" vertex="1" parent="1">
          <mxGeometry x="2230" y="320" width="20" height="120" as="geometry" />
        </mxCell>
        <mxCell id="w8XHvRQ3OK808wwk4YDb-111" value="" style="endArrow=classic;html=1;rounded=0;exitX=0;exitY=0.5;exitDx=0;exitDy=0;entryX=0.793;entryY=0.996;entryDx=0;entryDy=0;entryPerimeter=0;" edge="1" parent="1" source="w8XHvRQ3OK808wwk4YDb-96" target="w8XHvRQ3OK808wwk4YDb-110">
          <mxGeometry width="50" height="50" relative="1" as="geometry">
            <mxPoint x="2340" y="420" as="sourcePoint" />
            <mxPoint x="2390" y="370" as="targetPoint" />
          </mxGeometry>
        </mxCell>
        <mxCell id="w8XHvRQ3OK808wwk4YDb-112" value="" style="endArrow=classic;html=1;rounded=0;exitX=0;exitY=0.5;exitDx=0;exitDy=0;entryX=0.793;entryY=0.996;entryDx=0;entryDy=0;entryPerimeter=0;" edge="1" parent="1">
          <mxGeometry width="50" height="50" relative="1" as="geometry">
            <mxPoint x="2270" y="414.78" as="sourcePoint" />
            <mxPoint x="2250" y="414.78" as="targetPoint" />
          </mxGeometry>
        </mxCell>
        <mxCell id="w8XHvRQ3OK808wwk4YDb-113" value="9" style="whiteSpace=wrap;html=1;aspect=fixed;fillColor=#dae8fc;strokeColor=#6c8ebf;" vertex="1" parent="1">
          <mxGeometry x="2110" y="320" width="50" height="50" as="geometry" />
        </mxCell>
        <mxCell id="w8XHvRQ3OK808wwk4YDb-114" value="" style="endArrow=classic;html=1;rounded=0;" edge="1" parent="1">
          <mxGeometry width="50" height="50" relative="1" as="geometry">
            <mxPoint x="2120" y="300" as="sourcePoint" />
            <mxPoint x="2120" y="320" as="targetPoint" />
            <Array as="points">
              <mxPoint x="2120" y="310" />
            </Array>
          </mxGeometry>
        </mxCell>
        <mxCell id="w8XHvRQ3OK808wwk4YDb-115" value="" style="endArrow=classic;html=1;rounded=0;" edge="1" parent="1">
          <mxGeometry width="50" height="50" relative="1" as="geometry">
            <mxPoint x="2134.85" y="300" as="sourcePoint" />
            <mxPoint x="2134.85" y="320" as="targetPoint" />
            <Array as="points">
              <mxPoint x="2134.85" y="310" />
            </Array>
          </mxGeometry>
        </mxCell>
        <mxCell id="w8XHvRQ3OK808wwk4YDb-116" value="" style="endArrow=classic;html=1;rounded=0;entryX=1;entryY=0.5;entryDx=0;entryDy=0;" edge="1" parent="1" target="w8XHvRQ3OK808wwk4YDb-113">
          <mxGeometry width="50" height="50" relative="1" as="geometry">
            <mxPoint x="2190" y="345" as="sourcePoint" />
            <mxPoint x="2180" y="350" as="targetPoint" />
            <Array as="points" />
          </mxGeometry>
        </mxCell>
        <mxCell id="w8XHvRQ3OK808wwk4YDb-117" value="&lt;div&gt;0&lt;/div&gt;" style="text;html=1;align=center;verticalAlign=middle;resizable=0;points=[];autosize=1;strokeColor=none;fillColor=none;" vertex="1" parent="1">
          <mxGeometry x="2185" y="330" width="30" height="30" as="geometry" />
        </mxCell>
        <mxCell id="w8XHvRQ3OK808wwk4YDb-118" value="&lt;div&gt;M&lt;/div&gt;" style="text;html=1;align=center;verticalAlign=middle;resizable=0;points=[];autosize=1;strokeColor=none;fillColor=none;" vertex="1" parent="1">
          <mxGeometry x="2130" y="300" width="30" height="30" as="geometry" />
        </mxCell>
        <mxCell id="w8XHvRQ3OK808wwk4YDb-119" value="&lt;div&gt;9&lt;/div&gt;" style="whiteSpace=wrap;html=1;aspect=fixed;fillColor=#dae8fc;strokeColor=#6c8ebf;" vertex="1" parent="1">
          <mxGeometry x="2110" y="390" width="50" height="50" as="geometry" />
        </mxCell>
        <mxCell id="w8XHvRQ3OK808wwk4YDb-120" value="" style="endArrow=classic;html=1;rounded=0;" edge="1" parent="1">
          <mxGeometry width="50" height="50" relative="1" as="geometry">
            <mxPoint x="2120" y="370" as="sourcePoint" />
            <mxPoint x="2120" y="390" as="targetPoint" />
            <Array as="points">
              <mxPoint x="2120" y="380" />
            </Array>
          </mxGeometry>
        </mxCell>
        <mxCell id="w8XHvRQ3OK808wwk4YDb-121" value="" style="endArrow=classic;html=1;rounded=0;" edge="1" parent="1">
          <mxGeometry width="50" height="50" relative="1" as="geometry">
            <mxPoint x="2134.85" y="370" as="sourcePoint" />
            <mxPoint x="2134.85" y="390" as="targetPoint" />
            <Array as="points">
              <mxPoint x="2134.85" y="380" />
            </Array>
          </mxGeometry>
        </mxCell>
        <mxCell id="w8XHvRQ3OK808wwk4YDb-122" value="" style="endArrow=classic;html=1;rounded=0;entryX=1;entryY=0.5;entryDx=0;entryDy=0;" edge="1" parent="1" target="w8XHvRQ3OK808wwk4YDb-119">
          <mxGeometry width="50" height="50" relative="1" as="geometry">
            <mxPoint x="2190" y="415" as="sourcePoint" />
            <mxPoint x="2180" y="420" as="targetPoint" />
            <Array as="points" />
          </mxGeometry>
        </mxCell>
        <mxCell id="w8XHvRQ3OK808wwk4YDb-123" value="&lt;div&gt;1&lt;/div&gt;" style="text;html=1;align=center;verticalAlign=middle;resizable=0;points=[];autosize=1;strokeColor=none;fillColor=none;" vertex="1" parent="1">
          <mxGeometry x="2185" y="400" width="30" height="30" as="geometry" />
        </mxCell>
        <mxCell id="w8XHvRQ3OK808wwk4YDb-124" value="" style="endArrow=classic;html=1;rounded=0;exitX=0.25;exitY=1;exitDx=0;exitDy=0;" edge="1" parent="1" source="w8XHvRQ3OK808wwk4YDb-119">
          <mxGeometry width="50" height="50" relative="1" as="geometry">
            <mxPoint x="2270" y="480" as="sourcePoint" />
            <mxPoint x="2123" y="460" as="targetPoint" />
          </mxGeometry>
        </mxCell>
        <mxCell id="w8XHvRQ3OK808wwk4YDb-125" value="" style="shape=trapezoid;perimeter=trapezoidPerimeter;whiteSpace=wrap;html=1;fixedSize=1;direction=west;fillColor=#d5e8d4;strokeColor=#82b366;" vertex="1" parent="1">
          <mxGeometry x="2110" y="460" width="50" height="20" as="geometry" />
        </mxCell>
        <mxCell id="w8XHvRQ3OK808wwk4YDb-126" value="" style="endArrow=classic;html=1;rounded=0;exitX=0.75;exitY=1;exitDx=0;exitDy=0;entryX=0.25;entryY=1;entryDx=0;entryDy=0;" edge="1" parent="1" source="w8XHvRQ3OK808wwk4YDb-113" target="w8XHvRQ3OK808wwk4YDb-125">
          <mxGeometry width="50" height="50" relative="1" as="geometry">
            <mxPoint x="2210" y="450" as="sourcePoint" />
            <mxPoint x="2260" y="400" as="targetPoint" />
          </mxGeometry>
        </mxCell>
        <mxCell id="w8XHvRQ3OK808wwk4YDb-127" value="" style="shape=trapezoid;perimeter=trapezoidPerimeter;whiteSpace=wrap;html=1;fixedSize=1;direction=north;fillColor=#d5e8d4;strokeColor=#82b366;" vertex="1" parent="1">
          <mxGeometry x="2070" y="320" width="20" height="120" as="geometry" />
        </mxCell>
        <mxCell id="w8XHvRQ3OK808wwk4YDb-128" value="" style="endArrow=classic;html=1;rounded=0;exitX=0;exitY=0.5;exitDx=0;exitDy=0;entryX=0.793;entryY=0.996;entryDx=0;entryDy=0;entryPerimeter=0;" edge="1" parent="1" source="w8XHvRQ3OK808wwk4YDb-113" target="w8XHvRQ3OK808wwk4YDb-127">
          <mxGeometry width="50" height="50" relative="1" as="geometry">
            <mxPoint x="2180" y="420" as="sourcePoint" />
            <mxPoint x="2230" y="370" as="targetPoint" />
          </mxGeometry>
        </mxCell>
        <mxCell id="w8XHvRQ3OK808wwk4YDb-129" value="" style="endArrow=classic;html=1;rounded=0;exitX=0;exitY=0.5;exitDx=0;exitDy=0;entryX=0.793;entryY=0.996;entryDx=0;entryDy=0;entryPerimeter=0;" edge="1" parent="1">
          <mxGeometry width="50" height="50" relative="1" as="geometry">
            <mxPoint x="2110" y="414.78" as="sourcePoint" />
            <mxPoint x="2090" y="414.78" as="targetPoint" />
          </mxGeometry>
        </mxCell>
        <mxCell id="w8XHvRQ3OK808wwk4YDb-130" value="11" style="whiteSpace=wrap;html=1;aspect=fixed;fillColor=#dae8fc;strokeColor=#6c8ebf;" vertex="1" parent="1">
          <mxGeometry x="1950" y="320" width="50" height="50" as="geometry" />
        </mxCell>
        <mxCell id="w8XHvRQ3OK808wwk4YDb-131" value="" style="endArrow=classic;html=1;rounded=0;" edge="1" parent="1">
          <mxGeometry width="50" height="50" relative="1" as="geometry">
            <mxPoint x="1960" y="300" as="sourcePoint" />
            <mxPoint x="1960" y="320" as="targetPoint" />
            <Array as="points">
              <mxPoint x="1960" y="310" />
            </Array>
          </mxGeometry>
        </mxCell>
        <mxCell id="w8XHvRQ3OK808wwk4YDb-132" value="" style="endArrow=classic;html=1;rounded=0;" edge="1" parent="1">
          <mxGeometry width="50" height="50" relative="1" as="geometry">
            <mxPoint x="1974.85" y="300" as="sourcePoint" />
            <mxPoint x="1974.85" y="320" as="targetPoint" />
            <Array as="points">
              <mxPoint x="1974.85" y="310" />
            </Array>
          </mxGeometry>
        </mxCell>
        <mxCell id="w8XHvRQ3OK808wwk4YDb-133" value="" style="endArrow=classic;html=1;rounded=0;entryX=1;entryY=0.5;entryDx=0;entryDy=0;" edge="1" parent="1" target="w8XHvRQ3OK808wwk4YDb-130">
          <mxGeometry width="50" height="50" relative="1" as="geometry">
            <mxPoint x="2030" y="345" as="sourcePoint" />
            <mxPoint x="2020" y="350" as="targetPoint" />
            <Array as="points" />
          </mxGeometry>
        </mxCell>
        <mxCell id="w8XHvRQ3OK808wwk4YDb-134" value="&lt;div&gt;0&lt;/div&gt;" style="text;html=1;align=center;verticalAlign=middle;resizable=0;points=[];autosize=1;strokeColor=none;fillColor=none;" vertex="1" parent="1">
          <mxGeometry x="2025" y="330" width="30" height="30" as="geometry" />
        </mxCell>
        <mxCell id="w8XHvRQ3OK808wwk4YDb-135" value="&lt;div&gt;M&lt;/div&gt;" style="text;html=1;align=center;verticalAlign=middle;resizable=0;points=[];autosize=1;strokeColor=none;fillColor=none;" vertex="1" parent="1">
          <mxGeometry x="1970" y="300" width="30" height="30" as="geometry" />
        </mxCell>
        <mxCell id="w8XHvRQ3OK808wwk4YDb-136" value="11" style="whiteSpace=wrap;html=1;aspect=fixed;fillColor=#dae8fc;strokeColor=#6c8ebf;" vertex="1" parent="1">
          <mxGeometry x="1950" y="390" width="50" height="50" as="geometry" />
        </mxCell>
        <mxCell id="w8XHvRQ3OK808wwk4YDb-137" value="" style="endArrow=classic;html=1;rounded=0;" edge="1" parent="1">
          <mxGeometry width="50" height="50" relative="1" as="geometry">
            <mxPoint x="1960" y="370" as="sourcePoint" />
            <mxPoint x="1960" y="390" as="targetPoint" />
            <Array as="points">
              <mxPoint x="1960" y="380" />
            </Array>
          </mxGeometry>
        </mxCell>
        <mxCell id="w8XHvRQ3OK808wwk4YDb-138" value="" style="endArrow=classic;html=1;rounded=0;" edge="1" parent="1">
          <mxGeometry width="50" height="50" relative="1" as="geometry">
            <mxPoint x="1974.85" y="370" as="sourcePoint" />
            <mxPoint x="1974.85" y="390" as="targetPoint" />
            <Array as="points">
              <mxPoint x="1974.85" y="380" />
            </Array>
          </mxGeometry>
        </mxCell>
        <mxCell id="w8XHvRQ3OK808wwk4YDb-139" value="" style="endArrow=classic;html=1;rounded=0;entryX=1;entryY=0.5;entryDx=0;entryDy=0;" edge="1" parent="1" target="w8XHvRQ3OK808wwk4YDb-136">
          <mxGeometry width="50" height="50" relative="1" as="geometry">
            <mxPoint x="2030" y="415" as="sourcePoint" />
            <mxPoint x="2020" y="420" as="targetPoint" />
            <Array as="points" />
          </mxGeometry>
        </mxCell>
        <mxCell id="w8XHvRQ3OK808wwk4YDb-140" value="&lt;div&gt;1&lt;/div&gt;" style="text;html=1;align=center;verticalAlign=middle;resizable=0;points=[];autosize=1;strokeColor=none;fillColor=none;" vertex="1" parent="1">
          <mxGeometry x="2025" y="400" width="30" height="30" as="geometry" />
        </mxCell>
        <mxCell id="w8XHvRQ3OK808wwk4YDb-141" value="" style="endArrow=classic;html=1;rounded=0;exitX=0.25;exitY=1;exitDx=0;exitDy=0;" edge="1" parent="1" source="w8XHvRQ3OK808wwk4YDb-136">
          <mxGeometry width="50" height="50" relative="1" as="geometry">
            <mxPoint x="2110" y="480" as="sourcePoint" />
            <mxPoint x="1963" y="460" as="targetPoint" />
          </mxGeometry>
        </mxCell>
        <mxCell id="w8XHvRQ3OK808wwk4YDb-142" value="" style="shape=trapezoid;perimeter=trapezoidPerimeter;whiteSpace=wrap;html=1;fixedSize=1;direction=west;fillColor=#d5e8d4;strokeColor=#82b366;" vertex="1" parent="1">
          <mxGeometry x="1950" y="460" width="50" height="20" as="geometry" />
        </mxCell>
        <mxCell id="w8XHvRQ3OK808wwk4YDb-143" value="" style="endArrow=classic;html=1;rounded=0;exitX=0.75;exitY=1;exitDx=0;exitDy=0;entryX=0.25;entryY=1;entryDx=0;entryDy=0;" edge="1" parent="1" source="w8XHvRQ3OK808wwk4YDb-130" target="w8XHvRQ3OK808wwk4YDb-142">
          <mxGeometry width="50" height="50" relative="1" as="geometry">
            <mxPoint x="2050" y="450" as="sourcePoint" />
            <mxPoint x="2100" y="400" as="targetPoint" />
          </mxGeometry>
        </mxCell>
        <mxCell id="w8XHvRQ3OK808wwk4YDb-144" value="" style="shape=trapezoid;perimeter=trapezoidPerimeter;whiteSpace=wrap;html=1;fixedSize=1;direction=north;fillColor=#d5e8d4;strokeColor=#82b366;" vertex="1" parent="1">
          <mxGeometry x="1910" y="320" width="20" height="120" as="geometry" />
        </mxCell>
        <mxCell id="w8XHvRQ3OK808wwk4YDb-145" value="" style="endArrow=classic;html=1;rounded=0;exitX=0;exitY=0.5;exitDx=0;exitDy=0;entryX=0.793;entryY=0.996;entryDx=0;entryDy=0;entryPerimeter=0;" edge="1" parent="1" source="w8XHvRQ3OK808wwk4YDb-130" target="w8XHvRQ3OK808wwk4YDb-144">
          <mxGeometry width="50" height="50" relative="1" as="geometry">
            <mxPoint x="2020" y="420" as="sourcePoint" />
            <mxPoint x="2070" y="370" as="targetPoint" />
          </mxGeometry>
        </mxCell>
        <mxCell id="w8XHvRQ3OK808wwk4YDb-146" value="" style="endArrow=classic;html=1;rounded=0;exitX=0;exitY=0.5;exitDx=0;exitDy=0;entryX=0.793;entryY=0.996;entryDx=0;entryDy=0;entryPerimeter=0;" edge="1" parent="1">
          <mxGeometry width="50" height="50" relative="1" as="geometry">
            <mxPoint x="1950" y="414.78" as="sourcePoint" />
            <mxPoint x="1930" y="414.78" as="targetPoint" />
          </mxGeometry>
        </mxCell>
        <mxCell id="w8XHvRQ3OK808wwk4YDb-147" value="13" style="whiteSpace=wrap;html=1;aspect=fixed;fillColor=#dae8fc;strokeColor=#6c8ebf;" vertex="1" parent="1">
          <mxGeometry x="1790" y="320" width="50" height="50" as="geometry" />
        </mxCell>
        <mxCell id="w8XHvRQ3OK808wwk4YDb-148" value="" style="endArrow=classic;html=1;rounded=0;" edge="1" parent="1">
          <mxGeometry width="50" height="50" relative="1" as="geometry">
            <mxPoint x="1800" y="300" as="sourcePoint" />
            <mxPoint x="1800" y="320" as="targetPoint" />
            <Array as="points">
              <mxPoint x="1800" y="310" />
            </Array>
          </mxGeometry>
        </mxCell>
        <mxCell id="w8XHvRQ3OK808wwk4YDb-149" value="" style="endArrow=classic;html=1;rounded=0;" edge="1" parent="1">
          <mxGeometry width="50" height="50" relative="1" as="geometry">
            <mxPoint x="1814.85" y="300" as="sourcePoint" />
            <mxPoint x="1814.85" y="320" as="targetPoint" />
            <Array as="points">
              <mxPoint x="1814.85" y="310" />
            </Array>
          </mxGeometry>
        </mxCell>
        <mxCell id="w8XHvRQ3OK808wwk4YDb-150" value="" style="endArrow=classic;html=1;rounded=0;entryX=1;entryY=0.5;entryDx=0;entryDy=0;" edge="1" parent="1" target="w8XHvRQ3OK808wwk4YDb-147">
          <mxGeometry width="50" height="50" relative="1" as="geometry">
            <mxPoint x="1870" y="345" as="sourcePoint" />
            <mxPoint x="1860" y="350" as="targetPoint" />
            <Array as="points" />
          </mxGeometry>
        </mxCell>
        <mxCell id="w8XHvRQ3OK808wwk4YDb-151" value="&lt;div&gt;0&lt;/div&gt;" style="text;html=1;align=center;verticalAlign=middle;resizable=0;points=[];autosize=1;strokeColor=none;fillColor=none;" vertex="1" parent="1">
          <mxGeometry x="1865" y="330" width="30" height="30" as="geometry" />
        </mxCell>
        <mxCell id="w8XHvRQ3OK808wwk4YDb-152" value="&lt;div&gt;M&lt;/div&gt;" style="text;html=1;align=center;verticalAlign=middle;resizable=0;points=[];autosize=1;strokeColor=none;fillColor=none;" vertex="1" parent="1">
          <mxGeometry x="1810" y="300" width="30" height="30" as="geometry" />
        </mxCell>
        <mxCell id="w8XHvRQ3OK808wwk4YDb-153" value="13" style="whiteSpace=wrap;html=1;aspect=fixed;fillColor=#dae8fc;strokeColor=#6c8ebf;" vertex="1" parent="1">
          <mxGeometry x="1790" y="390" width="50" height="50" as="geometry" />
        </mxCell>
        <mxCell id="w8XHvRQ3OK808wwk4YDb-154" value="" style="endArrow=classic;html=1;rounded=0;" edge="1" parent="1">
          <mxGeometry width="50" height="50" relative="1" as="geometry">
            <mxPoint x="1800" y="370" as="sourcePoint" />
            <mxPoint x="1800" y="390" as="targetPoint" />
            <Array as="points">
              <mxPoint x="1800" y="380" />
            </Array>
          </mxGeometry>
        </mxCell>
        <mxCell id="w8XHvRQ3OK808wwk4YDb-155" value="" style="endArrow=classic;html=1;rounded=0;" edge="1" parent="1">
          <mxGeometry width="50" height="50" relative="1" as="geometry">
            <mxPoint x="1814.85" y="370" as="sourcePoint" />
            <mxPoint x="1814.85" y="390" as="targetPoint" />
            <Array as="points">
              <mxPoint x="1814.85" y="380" />
            </Array>
          </mxGeometry>
        </mxCell>
        <mxCell id="w8XHvRQ3OK808wwk4YDb-156" value="" style="endArrow=classic;html=1;rounded=0;entryX=1;entryY=0.5;entryDx=0;entryDy=0;" edge="1" parent="1" target="w8XHvRQ3OK808wwk4YDb-153">
          <mxGeometry width="50" height="50" relative="1" as="geometry">
            <mxPoint x="1870" y="415" as="sourcePoint" />
            <mxPoint x="1860" y="420" as="targetPoint" />
            <Array as="points" />
          </mxGeometry>
        </mxCell>
        <mxCell id="w8XHvRQ3OK808wwk4YDb-157" value="&lt;div&gt;1&lt;/div&gt;" style="text;html=1;align=center;verticalAlign=middle;resizable=0;points=[];autosize=1;strokeColor=none;fillColor=none;" vertex="1" parent="1">
          <mxGeometry x="1865" y="400" width="30" height="30" as="geometry" />
        </mxCell>
        <mxCell id="w8XHvRQ3OK808wwk4YDb-158" value="" style="endArrow=classic;html=1;rounded=0;exitX=0.25;exitY=1;exitDx=0;exitDy=0;" edge="1" parent="1" source="w8XHvRQ3OK808wwk4YDb-153">
          <mxGeometry width="50" height="50" relative="1" as="geometry">
            <mxPoint x="1950" y="480" as="sourcePoint" />
            <mxPoint x="1803" y="460" as="targetPoint" />
          </mxGeometry>
        </mxCell>
        <mxCell id="w8XHvRQ3OK808wwk4YDb-159" value="" style="shape=trapezoid;perimeter=trapezoidPerimeter;whiteSpace=wrap;html=1;fixedSize=1;direction=west;fillColor=#d5e8d4;strokeColor=#82b366;" vertex="1" parent="1">
          <mxGeometry x="1790" y="460" width="50" height="20" as="geometry" />
        </mxCell>
        <mxCell id="w8XHvRQ3OK808wwk4YDb-160" value="" style="endArrow=classic;html=1;rounded=0;exitX=0.75;exitY=1;exitDx=0;exitDy=0;entryX=0.25;entryY=1;entryDx=0;entryDy=0;" edge="1" parent="1" source="w8XHvRQ3OK808wwk4YDb-147" target="w8XHvRQ3OK808wwk4YDb-159">
          <mxGeometry width="50" height="50" relative="1" as="geometry">
            <mxPoint x="1890" y="450" as="sourcePoint" />
            <mxPoint x="1940" y="400" as="targetPoint" />
          </mxGeometry>
        </mxCell>
        <mxCell id="w8XHvRQ3OK808wwk4YDb-161" value="" style="shape=trapezoid;perimeter=trapezoidPerimeter;whiteSpace=wrap;html=1;fixedSize=1;direction=north;fillColor=#d5e8d4;strokeColor=#82b366;" vertex="1" parent="1">
          <mxGeometry x="1750" y="320" width="20" height="120" as="geometry" />
        </mxCell>
        <mxCell id="w8XHvRQ3OK808wwk4YDb-162" value="" style="endArrow=classic;html=1;rounded=0;exitX=0;exitY=0.5;exitDx=0;exitDy=0;entryX=0.793;entryY=0.996;entryDx=0;entryDy=0;entryPerimeter=0;" edge="1" parent="1" source="w8XHvRQ3OK808wwk4YDb-147" target="w8XHvRQ3OK808wwk4YDb-161">
          <mxGeometry width="50" height="50" relative="1" as="geometry">
            <mxPoint x="1860" y="420" as="sourcePoint" />
            <mxPoint x="1910" y="370" as="targetPoint" />
          </mxGeometry>
        </mxCell>
        <mxCell id="w8XHvRQ3OK808wwk4YDb-163" value="" style="endArrow=classic;html=1;rounded=0;exitX=0;exitY=0.5;exitDx=0;exitDy=0;entryX=0.793;entryY=0.996;entryDx=0;entryDy=0;entryPerimeter=0;" edge="1" parent="1">
          <mxGeometry width="50" height="50" relative="1" as="geometry">
            <mxPoint x="1790" y="414.78" as="sourcePoint" />
            <mxPoint x="1770" y="414.78" as="targetPoint" />
          </mxGeometry>
        </mxCell>
        <mxCell id="w8XHvRQ3OK808wwk4YDb-164" value="15" style="whiteSpace=wrap;html=1;aspect=fixed;fillColor=#dae8fc;strokeColor=#6c8ebf;" vertex="1" parent="1">
          <mxGeometry x="1630" y="320" width="50" height="50" as="geometry" />
        </mxCell>
        <mxCell id="w8XHvRQ3OK808wwk4YDb-165" value="" style="endArrow=classic;html=1;rounded=0;" edge="1" parent="1">
          <mxGeometry width="50" height="50" relative="1" as="geometry">
            <mxPoint x="1640" y="300" as="sourcePoint" />
            <mxPoint x="1640" y="320" as="targetPoint" />
            <Array as="points">
              <mxPoint x="1640" y="310" />
            </Array>
          </mxGeometry>
        </mxCell>
        <mxCell id="w8XHvRQ3OK808wwk4YDb-166" value="" style="endArrow=classic;html=1;rounded=0;" edge="1" parent="1">
          <mxGeometry width="50" height="50" relative="1" as="geometry">
            <mxPoint x="1654.85" y="300" as="sourcePoint" />
            <mxPoint x="1654.85" y="320" as="targetPoint" />
            <Array as="points">
              <mxPoint x="1654.85" y="310" />
            </Array>
          </mxGeometry>
        </mxCell>
        <mxCell id="w8XHvRQ3OK808wwk4YDb-167" value="" style="endArrow=classic;html=1;rounded=0;entryX=1;entryY=0.5;entryDx=0;entryDy=0;" edge="1" parent="1" target="w8XHvRQ3OK808wwk4YDb-164">
          <mxGeometry width="50" height="50" relative="1" as="geometry">
            <mxPoint x="1710" y="345" as="sourcePoint" />
            <mxPoint x="1700" y="350" as="targetPoint" />
            <Array as="points" />
          </mxGeometry>
        </mxCell>
        <mxCell id="w8XHvRQ3OK808wwk4YDb-168" value="&lt;div&gt;0&lt;/div&gt;" style="text;html=1;align=center;verticalAlign=middle;resizable=0;points=[];autosize=1;strokeColor=none;fillColor=none;" vertex="1" parent="1">
          <mxGeometry x="1705" y="330" width="30" height="30" as="geometry" />
        </mxCell>
        <mxCell id="w8XHvRQ3OK808wwk4YDb-169" value="&lt;div&gt;M&lt;/div&gt;" style="text;html=1;align=center;verticalAlign=middle;resizable=0;points=[];autosize=1;strokeColor=none;fillColor=none;" vertex="1" parent="1">
          <mxGeometry x="1650" y="300" width="30" height="30" as="geometry" />
        </mxCell>
        <mxCell id="w8XHvRQ3OK808wwk4YDb-170" value="&lt;div&gt;15&lt;/div&gt;" style="whiteSpace=wrap;html=1;aspect=fixed;fillColor=#dae8fc;strokeColor=#6c8ebf;" vertex="1" parent="1">
          <mxGeometry x="1630" y="390" width="50" height="50" as="geometry" />
        </mxCell>
        <mxCell id="w8XHvRQ3OK808wwk4YDb-171" value="" style="endArrow=classic;html=1;rounded=0;" edge="1" parent="1">
          <mxGeometry width="50" height="50" relative="1" as="geometry">
            <mxPoint x="1640" y="370" as="sourcePoint" />
            <mxPoint x="1640" y="390" as="targetPoint" />
            <Array as="points">
              <mxPoint x="1640" y="380" />
            </Array>
          </mxGeometry>
        </mxCell>
        <mxCell id="w8XHvRQ3OK808wwk4YDb-172" value="" style="endArrow=classic;html=1;rounded=0;" edge="1" parent="1">
          <mxGeometry width="50" height="50" relative="1" as="geometry">
            <mxPoint x="1654.85" y="370" as="sourcePoint" />
            <mxPoint x="1654.85" y="390" as="targetPoint" />
            <Array as="points">
              <mxPoint x="1654.85" y="380" />
            </Array>
          </mxGeometry>
        </mxCell>
        <mxCell id="w8XHvRQ3OK808wwk4YDb-173" value="" style="endArrow=classic;html=1;rounded=0;entryX=1;entryY=0.5;entryDx=0;entryDy=0;" edge="1" parent="1" target="w8XHvRQ3OK808wwk4YDb-170">
          <mxGeometry width="50" height="50" relative="1" as="geometry">
            <mxPoint x="1710" y="415" as="sourcePoint" />
            <mxPoint x="1700" y="420" as="targetPoint" />
            <Array as="points" />
          </mxGeometry>
        </mxCell>
        <mxCell id="w8XHvRQ3OK808wwk4YDb-174" value="&lt;div&gt;1&lt;/div&gt;" style="text;html=1;align=center;verticalAlign=middle;resizable=0;points=[];autosize=1;strokeColor=none;fillColor=none;" vertex="1" parent="1">
          <mxGeometry x="1705" y="400" width="30" height="30" as="geometry" />
        </mxCell>
        <mxCell id="w8XHvRQ3OK808wwk4YDb-175" value="" style="endArrow=classic;html=1;rounded=0;exitX=0.25;exitY=1;exitDx=0;exitDy=0;" edge="1" parent="1" source="w8XHvRQ3OK808wwk4YDb-170">
          <mxGeometry width="50" height="50" relative="1" as="geometry">
            <mxPoint x="1790" y="480" as="sourcePoint" />
            <mxPoint x="1643" y="460" as="targetPoint" />
          </mxGeometry>
        </mxCell>
        <mxCell id="w8XHvRQ3OK808wwk4YDb-176" value="" style="shape=trapezoid;perimeter=trapezoidPerimeter;whiteSpace=wrap;html=1;fixedSize=1;direction=west;fillColor=#d5e8d4;strokeColor=#82b366;" vertex="1" parent="1">
          <mxGeometry x="1630" y="460" width="50" height="20" as="geometry" />
        </mxCell>
        <mxCell id="w8XHvRQ3OK808wwk4YDb-177" value="" style="endArrow=classic;html=1;rounded=0;exitX=0.75;exitY=1;exitDx=0;exitDy=0;entryX=0.25;entryY=1;entryDx=0;entryDy=0;" edge="1" parent="1" source="w8XHvRQ3OK808wwk4YDb-164" target="w8XHvRQ3OK808wwk4YDb-176">
          <mxGeometry width="50" height="50" relative="1" as="geometry">
            <mxPoint x="1730" y="450" as="sourcePoint" />
            <mxPoint x="1780" y="400" as="targetPoint" />
          </mxGeometry>
        </mxCell>
        <mxCell id="w8XHvRQ3OK808wwk4YDb-178" value="" style="shape=trapezoid;perimeter=trapezoidPerimeter;whiteSpace=wrap;html=1;fixedSize=1;direction=north;fillColor=#d5e8d4;strokeColor=#82b366;" vertex="1" parent="1">
          <mxGeometry x="1590" y="320" width="20" height="120" as="geometry" />
        </mxCell>
        <mxCell id="w8XHvRQ3OK808wwk4YDb-179" value="" style="endArrow=classic;html=1;rounded=0;exitX=0;exitY=0.5;exitDx=0;exitDy=0;entryX=0.793;entryY=0.996;entryDx=0;entryDy=0;entryPerimeter=0;" edge="1" parent="1" source="w8XHvRQ3OK808wwk4YDb-164" target="w8XHvRQ3OK808wwk4YDb-178">
          <mxGeometry width="50" height="50" relative="1" as="geometry">
            <mxPoint x="1700" y="420" as="sourcePoint" />
            <mxPoint x="1750" y="370" as="targetPoint" />
          </mxGeometry>
        </mxCell>
        <mxCell id="w8XHvRQ3OK808wwk4YDb-180" value="" style="endArrow=classic;html=1;rounded=0;exitX=0;exitY=0.5;exitDx=0;exitDy=0;entryX=0.793;entryY=0.996;entryDx=0;entryDy=0;entryPerimeter=0;" edge="1" parent="1">
          <mxGeometry width="50" height="50" relative="1" as="geometry">
            <mxPoint x="1630" y="414.78" as="sourcePoint" />
            <mxPoint x="1610" y="414.78" as="targetPoint" />
          </mxGeometry>
        </mxCell>
        <mxCell id="w8XHvRQ3OK808wwk4YDb-181" value="16" style="whiteSpace=wrap;html=1;aspect=fixed;fillColor=#dae8fc;strokeColor=#6c8ebf;" vertex="1" parent="1">
          <mxGeometry x="1470" y="320" width="50" height="50" as="geometry" />
        </mxCell>
        <mxCell id="w8XHvRQ3OK808wwk4YDb-182" value="" style="endArrow=classic;html=1;rounded=0;" edge="1" parent="1">
          <mxGeometry width="50" height="50" relative="1" as="geometry">
            <mxPoint x="1480" y="300" as="sourcePoint" />
            <mxPoint x="1480" y="320" as="targetPoint" />
            <Array as="points">
              <mxPoint x="1480" y="310" />
            </Array>
          </mxGeometry>
        </mxCell>
        <mxCell id="w8XHvRQ3OK808wwk4YDb-183" value="" style="endArrow=classic;html=1;rounded=0;" edge="1" parent="1">
          <mxGeometry width="50" height="50" relative="1" as="geometry">
            <mxPoint x="1494.85" y="300" as="sourcePoint" />
            <mxPoint x="1494.85" y="320" as="targetPoint" />
            <Array as="points">
              <mxPoint x="1494.85" y="310" />
            </Array>
          </mxGeometry>
        </mxCell>
        <mxCell id="w8XHvRQ3OK808wwk4YDb-184" value="" style="endArrow=classic;html=1;rounded=0;entryX=1;entryY=0.5;entryDx=0;entryDy=0;" edge="1" parent="1" target="w8XHvRQ3OK808wwk4YDb-181">
          <mxGeometry width="50" height="50" relative="1" as="geometry">
            <mxPoint x="1550" y="345" as="sourcePoint" />
            <mxPoint x="1540" y="350" as="targetPoint" />
            <Array as="points" />
          </mxGeometry>
        </mxCell>
        <mxCell id="w8XHvRQ3OK808wwk4YDb-185" value="&lt;div&gt;0&lt;/div&gt;" style="text;html=1;align=center;verticalAlign=middle;resizable=0;points=[];autosize=1;strokeColor=none;fillColor=none;" vertex="1" parent="1">
          <mxGeometry x="1545" y="330" width="30" height="30" as="geometry" />
        </mxCell>
        <mxCell id="w8XHvRQ3OK808wwk4YDb-186" value="&lt;div&gt;M&lt;/div&gt;" style="text;html=1;align=center;verticalAlign=middle;resizable=0;points=[];autosize=1;strokeColor=none;fillColor=none;" vertex="1" parent="1">
          <mxGeometry x="1490" y="300" width="30" height="30" as="geometry" />
        </mxCell>
        <mxCell id="w8XHvRQ3OK808wwk4YDb-187" value="&lt;div&gt;16&lt;/div&gt;" style="whiteSpace=wrap;html=1;aspect=fixed;fillColor=#dae8fc;strokeColor=#6c8ebf;" vertex="1" parent="1">
          <mxGeometry x="1470" y="390" width="50" height="50" as="geometry" />
        </mxCell>
        <mxCell id="w8XHvRQ3OK808wwk4YDb-188" value="" style="endArrow=classic;html=1;rounded=0;" edge="1" parent="1">
          <mxGeometry width="50" height="50" relative="1" as="geometry">
            <mxPoint x="1480" y="370" as="sourcePoint" />
            <mxPoint x="1480" y="390" as="targetPoint" />
            <Array as="points">
              <mxPoint x="1480" y="380" />
            </Array>
          </mxGeometry>
        </mxCell>
        <mxCell id="w8XHvRQ3OK808wwk4YDb-189" value="" style="endArrow=classic;html=1;rounded=0;" edge="1" parent="1">
          <mxGeometry width="50" height="50" relative="1" as="geometry">
            <mxPoint x="1494.85" y="370" as="sourcePoint" />
            <mxPoint x="1494.85" y="390" as="targetPoint" />
            <Array as="points">
              <mxPoint x="1494.85" y="380" />
            </Array>
          </mxGeometry>
        </mxCell>
        <mxCell id="w8XHvRQ3OK808wwk4YDb-190" value="" style="endArrow=classic;html=1;rounded=0;entryX=1;entryY=0.5;entryDx=0;entryDy=0;" edge="1" parent="1" target="w8XHvRQ3OK808wwk4YDb-187">
          <mxGeometry width="50" height="50" relative="1" as="geometry">
            <mxPoint x="1550" y="415" as="sourcePoint" />
            <mxPoint x="1540" y="420" as="targetPoint" />
            <Array as="points" />
          </mxGeometry>
        </mxCell>
        <mxCell id="w8XHvRQ3OK808wwk4YDb-191" value="&lt;div&gt;1&lt;/div&gt;" style="text;html=1;align=center;verticalAlign=middle;resizable=0;points=[];autosize=1;strokeColor=none;fillColor=none;" vertex="1" parent="1">
          <mxGeometry x="1545" y="400" width="30" height="30" as="geometry" />
        </mxCell>
        <mxCell id="w8XHvRQ3OK808wwk4YDb-192" value="" style="endArrow=classic;html=1;rounded=0;exitX=0.25;exitY=1;exitDx=0;exitDy=0;" edge="1" parent="1" source="w8XHvRQ3OK808wwk4YDb-187">
          <mxGeometry width="50" height="50" relative="1" as="geometry">
            <mxPoint x="1630" y="480" as="sourcePoint" />
            <mxPoint x="1483" y="460" as="targetPoint" />
          </mxGeometry>
        </mxCell>
        <mxCell id="w8XHvRQ3OK808wwk4YDb-193" value="" style="shape=trapezoid;perimeter=trapezoidPerimeter;whiteSpace=wrap;html=1;fixedSize=1;direction=west;fillColor=#d5e8d4;strokeColor=#82b366;" vertex="1" parent="1">
          <mxGeometry x="1470" y="460" width="50" height="20" as="geometry" />
        </mxCell>
        <mxCell id="w8XHvRQ3OK808wwk4YDb-194" value="" style="endArrow=classic;html=1;rounded=0;exitX=0.75;exitY=1;exitDx=0;exitDy=0;entryX=0.25;entryY=1;entryDx=0;entryDy=0;" edge="1" parent="1" source="w8XHvRQ3OK808wwk4YDb-181" target="w8XHvRQ3OK808wwk4YDb-193">
          <mxGeometry width="50" height="50" relative="1" as="geometry">
            <mxPoint x="1570" y="450" as="sourcePoint" />
            <mxPoint x="1620" y="400" as="targetPoint" />
          </mxGeometry>
        </mxCell>
        <mxCell id="w8XHvRQ3OK808wwk4YDb-195" value="" style="shape=trapezoid;perimeter=trapezoidPerimeter;whiteSpace=wrap;html=1;fixedSize=1;direction=north;fillColor=#d5e8d4;strokeColor=#82b366;" vertex="1" parent="1">
          <mxGeometry x="1430" y="320" width="20" height="120" as="geometry" />
        </mxCell>
        <mxCell id="w8XHvRQ3OK808wwk4YDb-196" value="" style="endArrow=classic;html=1;rounded=0;exitX=0;exitY=0.5;exitDx=0;exitDy=0;entryX=0.793;entryY=0.996;entryDx=0;entryDy=0;entryPerimeter=0;" edge="1" parent="1" source="w8XHvRQ3OK808wwk4YDb-181" target="w8XHvRQ3OK808wwk4YDb-195">
          <mxGeometry width="50" height="50" relative="1" as="geometry">
            <mxPoint x="1540" y="420" as="sourcePoint" />
            <mxPoint x="1590" y="370" as="targetPoint" />
          </mxGeometry>
        </mxCell>
        <mxCell id="w8XHvRQ3OK808wwk4YDb-197" value="" style="endArrow=classic;html=1;rounded=0;exitX=0;exitY=0.5;exitDx=0;exitDy=0;entryX=0.793;entryY=0.996;entryDx=0;entryDy=0;entryPerimeter=0;" edge="1" parent="1">
          <mxGeometry width="50" height="50" relative="1" as="geometry">
            <mxPoint x="1470" y="414.78" as="sourcePoint" />
            <mxPoint x="1450" y="414.78" as="targetPoint" />
          </mxGeometry>
        </mxCell>
        <mxCell id="w8XHvRQ3OK808wwk4YDb-198" value="16" style="whiteSpace=wrap;html=1;aspect=fixed;fillColor=#dae8fc;strokeColor=#6c8ebf;" vertex="1" parent="1">
          <mxGeometry x="1310" y="320" width="50" height="50" as="geometry" />
        </mxCell>
        <mxCell id="w8XHvRQ3OK808wwk4YDb-199" value="" style="endArrow=classic;html=1;rounded=0;" edge="1" parent="1">
          <mxGeometry width="50" height="50" relative="1" as="geometry">
            <mxPoint x="1320" y="300" as="sourcePoint" />
            <mxPoint x="1320" y="320" as="targetPoint" />
            <Array as="points">
              <mxPoint x="1320" y="310" />
            </Array>
          </mxGeometry>
        </mxCell>
        <mxCell id="w8XHvRQ3OK808wwk4YDb-200" value="" style="endArrow=classic;html=1;rounded=0;" edge="1" parent="1">
          <mxGeometry width="50" height="50" relative="1" as="geometry">
            <mxPoint x="1334.85" y="300" as="sourcePoint" />
            <mxPoint x="1334.85" y="320" as="targetPoint" />
            <Array as="points">
              <mxPoint x="1334.85" y="310" />
            </Array>
          </mxGeometry>
        </mxCell>
        <mxCell id="w8XHvRQ3OK808wwk4YDb-201" value="" style="endArrow=classic;html=1;rounded=0;entryX=1;entryY=0.5;entryDx=0;entryDy=0;" edge="1" parent="1" target="w8XHvRQ3OK808wwk4YDb-198">
          <mxGeometry width="50" height="50" relative="1" as="geometry">
            <mxPoint x="1390" y="345" as="sourcePoint" />
            <mxPoint x="1380" y="350" as="targetPoint" />
            <Array as="points" />
          </mxGeometry>
        </mxCell>
        <mxCell id="w8XHvRQ3OK808wwk4YDb-202" value="&lt;div&gt;0&lt;/div&gt;" style="text;html=1;align=center;verticalAlign=middle;resizable=0;points=[];autosize=1;strokeColor=none;fillColor=none;" vertex="1" parent="1">
          <mxGeometry x="1385" y="330" width="30" height="30" as="geometry" />
        </mxCell>
        <mxCell id="w8XHvRQ3OK808wwk4YDb-203" value="&lt;div&gt;M&lt;/div&gt;" style="text;html=1;align=center;verticalAlign=middle;resizable=0;points=[];autosize=1;strokeColor=none;fillColor=none;" vertex="1" parent="1">
          <mxGeometry x="1330" y="300" width="30" height="30" as="geometry" />
        </mxCell>
        <mxCell id="w8XHvRQ3OK808wwk4YDb-204" value="&lt;div&gt;16&lt;/div&gt;" style="whiteSpace=wrap;html=1;aspect=fixed;fillColor=#dae8fc;strokeColor=#6c8ebf;" vertex="1" parent="1">
          <mxGeometry x="1310" y="390" width="50" height="50" as="geometry" />
        </mxCell>
        <mxCell id="w8XHvRQ3OK808wwk4YDb-205" value="" style="endArrow=classic;html=1;rounded=0;" edge="1" parent="1">
          <mxGeometry width="50" height="50" relative="1" as="geometry">
            <mxPoint x="1320" y="370" as="sourcePoint" />
            <mxPoint x="1320" y="390" as="targetPoint" />
            <Array as="points">
              <mxPoint x="1320" y="380" />
            </Array>
          </mxGeometry>
        </mxCell>
        <mxCell id="w8XHvRQ3OK808wwk4YDb-206" value="" style="endArrow=classic;html=1;rounded=0;" edge="1" parent="1">
          <mxGeometry width="50" height="50" relative="1" as="geometry">
            <mxPoint x="1334.85" y="370" as="sourcePoint" />
            <mxPoint x="1334.85" y="390" as="targetPoint" />
            <Array as="points">
              <mxPoint x="1334.85" y="380" />
            </Array>
          </mxGeometry>
        </mxCell>
        <mxCell id="w8XHvRQ3OK808wwk4YDb-207" value="" style="endArrow=classic;html=1;rounded=0;entryX=1;entryY=0.5;entryDx=0;entryDy=0;" edge="1" parent="1" target="w8XHvRQ3OK808wwk4YDb-204">
          <mxGeometry width="50" height="50" relative="1" as="geometry">
            <mxPoint x="1390" y="415" as="sourcePoint" />
            <mxPoint x="1380" y="420" as="targetPoint" />
            <Array as="points" />
          </mxGeometry>
        </mxCell>
        <mxCell id="w8XHvRQ3OK808wwk4YDb-208" value="&lt;div&gt;1&lt;/div&gt;" style="text;html=1;align=center;verticalAlign=middle;resizable=0;points=[];autosize=1;strokeColor=none;fillColor=none;" vertex="1" parent="1">
          <mxGeometry x="1385" y="400" width="30" height="30" as="geometry" />
        </mxCell>
        <mxCell id="w8XHvRQ3OK808wwk4YDb-209" value="" style="endArrow=classic;html=1;rounded=0;exitX=0.25;exitY=1;exitDx=0;exitDy=0;" edge="1" parent="1" source="w8XHvRQ3OK808wwk4YDb-204">
          <mxGeometry width="50" height="50" relative="1" as="geometry">
            <mxPoint x="1470" y="480" as="sourcePoint" />
            <mxPoint x="1323" y="460" as="targetPoint" />
          </mxGeometry>
        </mxCell>
        <mxCell id="w8XHvRQ3OK808wwk4YDb-210" value="" style="shape=trapezoid;perimeter=trapezoidPerimeter;whiteSpace=wrap;html=1;fixedSize=1;direction=west;fillColor=#d5e8d4;strokeColor=#82b366;" vertex="1" parent="1">
          <mxGeometry x="1310" y="460" width="50" height="20" as="geometry" />
        </mxCell>
        <mxCell id="w8XHvRQ3OK808wwk4YDb-211" value="" style="endArrow=classic;html=1;rounded=0;exitX=0.75;exitY=1;exitDx=0;exitDy=0;entryX=0.25;entryY=1;entryDx=0;entryDy=0;" edge="1" parent="1" source="w8XHvRQ3OK808wwk4YDb-198" target="w8XHvRQ3OK808wwk4YDb-210">
          <mxGeometry width="50" height="50" relative="1" as="geometry">
            <mxPoint x="1410" y="450" as="sourcePoint" />
            <mxPoint x="1460" y="400" as="targetPoint" />
          </mxGeometry>
        </mxCell>
        <mxCell id="w8XHvRQ3OK808wwk4YDb-212" value="" style="shape=trapezoid;perimeter=trapezoidPerimeter;whiteSpace=wrap;html=1;fixedSize=1;direction=north;fillColor=#d5e8d4;strokeColor=#82b366;" vertex="1" parent="1">
          <mxGeometry x="1270" y="320" width="20" height="120" as="geometry" />
        </mxCell>
        <mxCell id="w8XHvRQ3OK808wwk4YDb-213" value="" style="endArrow=classic;html=1;rounded=0;exitX=0;exitY=0.5;exitDx=0;exitDy=0;entryX=0.793;entryY=0.996;entryDx=0;entryDy=0;entryPerimeter=0;" edge="1" parent="1" source="w8XHvRQ3OK808wwk4YDb-198" target="w8XHvRQ3OK808wwk4YDb-212">
          <mxGeometry width="50" height="50" relative="1" as="geometry">
            <mxPoint x="1380" y="420" as="sourcePoint" />
            <mxPoint x="1430" y="370" as="targetPoint" />
          </mxGeometry>
        </mxCell>
        <mxCell id="w8XHvRQ3OK808wwk4YDb-214" value="" style="endArrow=classic;html=1;rounded=0;exitX=0;exitY=0.5;exitDx=0;exitDy=0;entryX=0.793;entryY=0.996;entryDx=0;entryDy=0;entryPerimeter=0;" edge="1" parent="1">
          <mxGeometry width="50" height="50" relative="1" as="geometry">
            <mxPoint x="1310" y="414.78" as="sourcePoint" />
            <mxPoint x="1290" y="414.78" as="targetPoint" />
          </mxGeometry>
        </mxCell>
        <mxCell id="w8XHvRQ3OK808wwk4YDb-215" value="16" style="whiteSpace=wrap;html=1;aspect=fixed;fillColor=#dae8fc;strokeColor=#6c8ebf;" vertex="1" parent="1">
          <mxGeometry x="1150" y="320" width="50" height="50" as="geometry" />
        </mxCell>
        <mxCell id="w8XHvRQ3OK808wwk4YDb-216" value="" style="endArrow=classic;html=1;rounded=0;" edge="1" parent="1">
          <mxGeometry width="50" height="50" relative="1" as="geometry">
            <mxPoint x="1160" y="300" as="sourcePoint" />
            <mxPoint x="1160" y="320" as="targetPoint" />
            <Array as="points">
              <mxPoint x="1160" y="310" />
            </Array>
          </mxGeometry>
        </mxCell>
        <mxCell id="w8XHvRQ3OK808wwk4YDb-217" value="" style="endArrow=classic;html=1;rounded=0;" edge="1" parent="1">
          <mxGeometry width="50" height="50" relative="1" as="geometry">
            <mxPoint x="1174.85" y="300" as="sourcePoint" />
            <mxPoint x="1174.85" y="320" as="targetPoint" />
            <Array as="points">
              <mxPoint x="1174.85" y="310" />
            </Array>
          </mxGeometry>
        </mxCell>
        <mxCell id="w8XHvRQ3OK808wwk4YDb-218" value="" style="endArrow=classic;html=1;rounded=0;entryX=1;entryY=0.5;entryDx=0;entryDy=0;" edge="1" parent="1" target="w8XHvRQ3OK808wwk4YDb-215">
          <mxGeometry width="50" height="50" relative="1" as="geometry">
            <mxPoint x="1230" y="345" as="sourcePoint" />
            <mxPoint x="1220" y="350" as="targetPoint" />
            <Array as="points" />
          </mxGeometry>
        </mxCell>
        <mxCell id="w8XHvRQ3OK808wwk4YDb-219" value="&lt;div&gt;0&lt;/div&gt;" style="text;html=1;align=center;verticalAlign=middle;resizable=0;points=[];autosize=1;strokeColor=none;fillColor=none;" vertex="1" parent="1">
          <mxGeometry x="1225" y="330" width="30" height="30" as="geometry" />
        </mxCell>
        <mxCell id="w8XHvRQ3OK808wwk4YDb-220" value="&lt;div&gt;M&lt;/div&gt;" style="text;html=1;align=center;verticalAlign=middle;resizable=0;points=[];autosize=1;strokeColor=none;fillColor=none;" vertex="1" parent="1">
          <mxGeometry x="1170" y="300" width="30" height="30" as="geometry" />
        </mxCell>
        <mxCell id="w8XHvRQ3OK808wwk4YDb-221" value="&lt;div&gt;16&lt;/div&gt;" style="whiteSpace=wrap;html=1;aspect=fixed;fillColor=#dae8fc;strokeColor=#6c8ebf;" vertex="1" parent="1">
          <mxGeometry x="1150" y="390" width="50" height="50" as="geometry" />
        </mxCell>
        <mxCell id="w8XHvRQ3OK808wwk4YDb-222" value="" style="endArrow=classic;html=1;rounded=0;" edge="1" parent="1">
          <mxGeometry width="50" height="50" relative="1" as="geometry">
            <mxPoint x="1160" y="370" as="sourcePoint" />
            <mxPoint x="1160" y="390" as="targetPoint" />
            <Array as="points">
              <mxPoint x="1160" y="380" />
            </Array>
          </mxGeometry>
        </mxCell>
        <mxCell id="w8XHvRQ3OK808wwk4YDb-223" value="" style="endArrow=classic;html=1;rounded=0;" edge="1" parent="1">
          <mxGeometry width="50" height="50" relative="1" as="geometry">
            <mxPoint x="1174.85" y="370" as="sourcePoint" />
            <mxPoint x="1174.85" y="390" as="targetPoint" />
            <Array as="points">
              <mxPoint x="1174.85" y="380" />
            </Array>
          </mxGeometry>
        </mxCell>
        <mxCell id="w8XHvRQ3OK808wwk4YDb-224" value="" style="endArrow=classic;html=1;rounded=0;entryX=1;entryY=0.5;entryDx=0;entryDy=0;" edge="1" parent="1" target="w8XHvRQ3OK808wwk4YDb-221">
          <mxGeometry width="50" height="50" relative="1" as="geometry">
            <mxPoint x="1230" y="415" as="sourcePoint" />
            <mxPoint x="1220" y="420" as="targetPoint" />
            <Array as="points" />
          </mxGeometry>
        </mxCell>
        <mxCell id="w8XHvRQ3OK808wwk4YDb-225" value="&lt;div&gt;1&lt;/div&gt;" style="text;html=1;align=center;verticalAlign=middle;resizable=0;points=[];autosize=1;strokeColor=none;fillColor=none;" vertex="1" parent="1">
          <mxGeometry x="1225" y="400" width="30" height="30" as="geometry" />
        </mxCell>
        <mxCell id="w8XHvRQ3OK808wwk4YDb-226" value="" style="endArrow=classic;html=1;rounded=0;exitX=0.25;exitY=1;exitDx=0;exitDy=0;" edge="1" parent="1" source="w8XHvRQ3OK808wwk4YDb-221">
          <mxGeometry width="50" height="50" relative="1" as="geometry">
            <mxPoint x="1310" y="480" as="sourcePoint" />
            <mxPoint x="1163" y="460" as="targetPoint" />
          </mxGeometry>
        </mxCell>
        <mxCell id="w8XHvRQ3OK808wwk4YDb-227" value="" style="shape=trapezoid;perimeter=trapezoidPerimeter;whiteSpace=wrap;html=1;fixedSize=1;direction=west;fillColor=#d5e8d4;strokeColor=#82b366;" vertex="1" parent="1">
          <mxGeometry x="1150" y="460" width="50" height="20" as="geometry" />
        </mxCell>
        <mxCell id="w8XHvRQ3OK808wwk4YDb-228" value="" style="endArrow=classic;html=1;rounded=0;exitX=0.75;exitY=1;exitDx=0;exitDy=0;entryX=0.25;entryY=1;entryDx=0;entryDy=0;" edge="1" parent="1" source="w8XHvRQ3OK808wwk4YDb-215" target="w8XHvRQ3OK808wwk4YDb-227">
          <mxGeometry width="50" height="50" relative="1" as="geometry">
            <mxPoint x="1250" y="450" as="sourcePoint" />
            <mxPoint x="1300" y="400" as="targetPoint" />
          </mxGeometry>
        </mxCell>
        <mxCell id="w8XHvRQ3OK808wwk4YDb-229" value="" style="shape=trapezoid;perimeter=trapezoidPerimeter;whiteSpace=wrap;html=1;fixedSize=1;direction=north;fillColor=#d5e8d4;strokeColor=#82b366;" vertex="1" parent="1">
          <mxGeometry x="1110" y="320" width="20" height="120" as="geometry" />
        </mxCell>
        <mxCell id="w8XHvRQ3OK808wwk4YDb-230" value="" style="endArrow=classic;html=1;rounded=0;exitX=0;exitY=0.5;exitDx=0;exitDy=0;entryX=0.793;entryY=0.996;entryDx=0;entryDy=0;entryPerimeter=0;" edge="1" parent="1" source="w8XHvRQ3OK808wwk4YDb-215" target="w8XHvRQ3OK808wwk4YDb-229">
          <mxGeometry width="50" height="50" relative="1" as="geometry">
            <mxPoint x="1220" y="420" as="sourcePoint" />
            <mxPoint x="1270" y="370" as="targetPoint" />
          </mxGeometry>
        </mxCell>
        <mxCell id="w8XHvRQ3OK808wwk4YDb-231" value="" style="endArrow=classic;html=1;rounded=0;exitX=0;exitY=0.5;exitDx=0;exitDy=0;entryX=0.793;entryY=0.996;entryDx=0;entryDy=0;entryPerimeter=0;" edge="1" parent="1">
          <mxGeometry width="50" height="50" relative="1" as="geometry">
            <mxPoint x="1150" y="414.78" as="sourcePoint" />
            <mxPoint x="1130" y="414.78" as="targetPoint" />
          </mxGeometry>
        </mxCell>
        <mxCell id="w8XHvRQ3OK808wwk4YDb-233" value="8" style="whiteSpace=wrap;html=1;aspect=fixed;fillColor=#dae8fc;strokeColor=#6c8ebf;" vertex="1" parent="1">
          <mxGeometry x="990" y="320" width="50" height="50" as="geometry" />
        </mxCell>
        <mxCell id="w8XHvRQ3OK808wwk4YDb-234" value="" style="endArrow=classic;html=1;rounded=0;" edge="1" parent="1">
          <mxGeometry width="50" height="50" relative="1" as="geometry">
            <mxPoint x="1000" y="300" as="sourcePoint" />
            <mxPoint x="1000" y="320" as="targetPoint" />
            <Array as="points">
              <mxPoint x="1000" y="310" />
            </Array>
          </mxGeometry>
        </mxCell>
        <mxCell id="w8XHvRQ3OK808wwk4YDb-235" value="" style="endArrow=classic;html=1;rounded=0;" edge="1" parent="1">
          <mxGeometry width="50" height="50" relative="1" as="geometry">
            <mxPoint x="1014.8499999999999" y="300" as="sourcePoint" />
            <mxPoint x="1014.8499999999999" y="320" as="targetPoint" />
            <Array as="points">
              <mxPoint x="1014.8499999999999" y="310" />
            </Array>
          </mxGeometry>
        </mxCell>
        <mxCell id="w8XHvRQ3OK808wwk4YDb-236" value="" style="endArrow=classic;html=1;rounded=0;entryX=1;entryY=0.5;entryDx=0;entryDy=0;" edge="1" parent="1" target="w8XHvRQ3OK808wwk4YDb-233">
          <mxGeometry width="50" height="50" relative="1" as="geometry">
            <mxPoint x="1070" y="345" as="sourcePoint" />
            <mxPoint x="1060" y="350" as="targetPoint" />
            <Array as="points" />
          </mxGeometry>
        </mxCell>
        <mxCell id="w8XHvRQ3OK808wwk4YDb-237" value="&lt;div&gt;0&lt;/div&gt;" style="text;html=1;align=center;verticalAlign=middle;resizable=0;points=[];autosize=1;strokeColor=none;fillColor=none;" vertex="1" parent="1">
          <mxGeometry x="1065" y="330" width="30" height="30" as="geometry" />
        </mxCell>
        <mxCell id="w8XHvRQ3OK808wwk4YDb-238" value="&lt;div&gt;M&lt;/div&gt;" style="text;html=1;align=center;verticalAlign=middle;resizable=0;points=[];autosize=1;strokeColor=none;fillColor=none;" vertex="1" parent="1">
          <mxGeometry x="1010" y="300" width="30" height="30" as="geometry" />
        </mxCell>
        <mxCell id="w8XHvRQ3OK808wwk4YDb-239" value="&lt;div&gt;8&lt;/div&gt;" style="whiteSpace=wrap;html=1;aspect=fixed;fillColor=#dae8fc;strokeColor=#6c8ebf;" vertex="1" parent="1">
          <mxGeometry x="990" y="390" width="50" height="50" as="geometry" />
        </mxCell>
        <mxCell id="w8XHvRQ3OK808wwk4YDb-240" value="" style="endArrow=classic;html=1;rounded=0;" edge="1" parent="1">
          <mxGeometry width="50" height="50" relative="1" as="geometry">
            <mxPoint x="1000" y="370" as="sourcePoint" />
            <mxPoint x="1000" y="390" as="targetPoint" />
            <Array as="points">
              <mxPoint x="1000" y="380" />
            </Array>
          </mxGeometry>
        </mxCell>
        <mxCell id="w8XHvRQ3OK808wwk4YDb-241" value="" style="endArrow=classic;html=1;rounded=0;" edge="1" parent="1">
          <mxGeometry width="50" height="50" relative="1" as="geometry">
            <mxPoint x="1014.8499999999999" y="370" as="sourcePoint" />
            <mxPoint x="1014.8499999999999" y="390" as="targetPoint" />
            <Array as="points">
              <mxPoint x="1014.8499999999999" y="380" />
            </Array>
          </mxGeometry>
        </mxCell>
        <mxCell id="w8XHvRQ3OK808wwk4YDb-242" value="" style="endArrow=classic;html=1;rounded=0;entryX=1;entryY=0.5;entryDx=0;entryDy=0;" edge="1" parent="1" target="w8XHvRQ3OK808wwk4YDb-239">
          <mxGeometry width="50" height="50" relative="1" as="geometry">
            <mxPoint x="1070" y="415" as="sourcePoint" />
            <mxPoint x="1060" y="420" as="targetPoint" />
            <Array as="points" />
          </mxGeometry>
        </mxCell>
        <mxCell id="w8XHvRQ3OK808wwk4YDb-243" value="&lt;div&gt;1&lt;/div&gt;" style="text;html=1;align=center;verticalAlign=middle;resizable=0;points=[];autosize=1;strokeColor=none;fillColor=none;" vertex="1" parent="1">
          <mxGeometry x="1065" y="400" width="30" height="30" as="geometry" />
        </mxCell>
        <mxCell id="w8XHvRQ3OK808wwk4YDb-244" value="" style="endArrow=classic;html=1;rounded=0;exitX=0.25;exitY=1;exitDx=0;exitDy=0;" edge="1" parent="1" source="w8XHvRQ3OK808wwk4YDb-239">
          <mxGeometry width="50" height="50" relative="1" as="geometry">
            <mxPoint x="1150" y="480" as="sourcePoint" />
            <mxPoint x="1003" y="460" as="targetPoint" />
          </mxGeometry>
        </mxCell>
        <mxCell id="w8XHvRQ3OK808wwk4YDb-245" value="" style="shape=trapezoid;perimeter=trapezoidPerimeter;whiteSpace=wrap;html=1;fixedSize=1;direction=west;fillColor=#d5e8d4;strokeColor=#82b366;" vertex="1" parent="1">
          <mxGeometry x="990" y="460" width="50" height="20" as="geometry" />
        </mxCell>
        <mxCell id="w8XHvRQ3OK808wwk4YDb-246" value="" style="endArrow=classic;html=1;rounded=0;exitX=0.75;exitY=1;exitDx=0;exitDy=0;entryX=0.25;entryY=1;entryDx=0;entryDy=0;" edge="1" parent="1" source="w8XHvRQ3OK808wwk4YDb-233" target="w8XHvRQ3OK808wwk4YDb-245">
          <mxGeometry width="50" height="50" relative="1" as="geometry">
            <mxPoint x="1090" y="450" as="sourcePoint" />
            <mxPoint x="1140" y="400" as="targetPoint" />
          </mxGeometry>
        </mxCell>
        <mxCell id="w8XHvRQ3OK808wwk4YDb-247" value="" style="shape=trapezoid;perimeter=trapezoidPerimeter;whiteSpace=wrap;html=1;fixedSize=1;direction=north;fillColor=#d5e8d4;strokeColor=#82b366;" vertex="1" parent="1">
          <mxGeometry x="950" y="320" width="20" height="120" as="geometry" />
        </mxCell>
        <mxCell id="w8XHvRQ3OK808wwk4YDb-248" value="" style="endArrow=classic;html=1;rounded=0;exitX=0;exitY=0.5;exitDx=0;exitDy=0;entryX=0.793;entryY=0.996;entryDx=0;entryDy=0;entryPerimeter=0;" edge="1" parent="1" source="w8XHvRQ3OK808wwk4YDb-233" target="w8XHvRQ3OK808wwk4YDb-247">
          <mxGeometry width="50" height="50" relative="1" as="geometry">
            <mxPoint x="1060" y="420" as="sourcePoint" />
            <mxPoint x="1110" y="370" as="targetPoint" />
          </mxGeometry>
        </mxCell>
        <mxCell id="w8XHvRQ3OK808wwk4YDb-249" value="" style="endArrow=classic;html=1;rounded=0;exitX=0;exitY=0.5;exitDx=0;exitDy=0;entryX=0.793;entryY=0.996;entryDx=0;entryDy=0;entryPerimeter=0;" edge="1" parent="1">
          <mxGeometry width="50" height="50" relative="1" as="geometry">
            <mxPoint x="990" y="414.78" as="sourcePoint" />
            <mxPoint x="970" y="414.78" as="targetPoint" />
          </mxGeometry>
        </mxCell>
        <mxCell id="w8XHvRQ3OK808wwk4YDb-251" value="" style="endArrow=classic;html=1;rounded=0;exitX=0.5;exitY=0;exitDx=0;exitDy=0;" edge="1" parent="1" source="w8XHvRQ3OK808wwk4YDb-25">
          <mxGeometry width="50" height="50" relative="1" as="geometry">
            <mxPoint x="2930" y="480" as="sourcePoint" />
            <mxPoint x="2935" y="510" as="targetPoint" />
          </mxGeometry>
        </mxCell>
        <mxCell id="w8XHvRQ3OK808wwk4YDb-252" value="" style="endArrow=classic;html=1;rounded=0;exitX=0.5;exitY=0;exitDx=0;exitDy=0;" edge="1" parent="1">
          <mxGeometry width="50" height="50" relative="1" as="geometry">
            <mxPoint x="2774.81" y="480" as="sourcePoint" />
            <mxPoint x="2774.81" y="510" as="targetPoint" />
          </mxGeometry>
        </mxCell>
        <mxCell id="w8XHvRQ3OK808wwk4YDb-253" value="" style="endArrow=classic;html=1;rounded=0;exitX=0.5;exitY=0;exitDx=0;exitDy=0;" edge="1" parent="1">
          <mxGeometry width="50" height="50" relative="1" as="geometry">
            <mxPoint x="2614.81" y="480" as="sourcePoint" />
            <mxPoint x="2614.81" y="510" as="targetPoint" />
          </mxGeometry>
        </mxCell>
        <mxCell id="w8XHvRQ3OK808wwk4YDb-254" value="" style="endArrow=classic;html=1;rounded=0;exitX=0.5;exitY=0;exitDx=0;exitDy=0;" edge="1" parent="1">
          <mxGeometry width="50" height="50" relative="1" as="geometry">
            <mxPoint x="2454.81" y="480" as="sourcePoint" />
            <mxPoint x="2454.81" y="510" as="targetPoint" />
          </mxGeometry>
        </mxCell>
        <mxCell id="w8XHvRQ3OK808wwk4YDb-255" value="" style="endArrow=classic;html=1;rounded=0;exitX=0.5;exitY=0;exitDx=0;exitDy=0;" edge="1" parent="1">
          <mxGeometry width="50" height="50" relative="1" as="geometry">
            <mxPoint x="2294.81" y="480" as="sourcePoint" />
            <mxPoint x="2294.81" y="510" as="targetPoint" />
          </mxGeometry>
        </mxCell>
        <mxCell id="w8XHvRQ3OK808wwk4YDb-256" value="" style="endArrow=classic;html=1;rounded=0;exitX=0.5;exitY=0;exitDx=0;exitDy=0;" edge="1" parent="1">
          <mxGeometry width="50" height="50" relative="1" as="geometry">
            <mxPoint x="2134.81" y="480" as="sourcePoint" />
            <mxPoint x="2134.81" y="510" as="targetPoint" />
          </mxGeometry>
        </mxCell>
        <mxCell id="w8XHvRQ3OK808wwk4YDb-257" value="" style="endArrow=classic;html=1;rounded=0;exitX=0.5;exitY=0;exitDx=0;exitDy=0;" edge="1" parent="1">
          <mxGeometry width="50" height="50" relative="1" as="geometry">
            <mxPoint x="1974.81" y="480" as="sourcePoint" />
            <mxPoint x="1974.81" y="510" as="targetPoint" />
          </mxGeometry>
        </mxCell>
        <mxCell id="w8XHvRQ3OK808wwk4YDb-258" value="" style="endArrow=classic;html=1;rounded=0;exitX=0.5;exitY=0;exitDx=0;exitDy=0;" edge="1" parent="1">
          <mxGeometry width="50" height="50" relative="1" as="geometry">
            <mxPoint x="1814.81" y="480" as="sourcePoint" />
            <mxPoint x="1814.81" y="510" as="targetPoint" />
          </mxGeometry>
        </mxCell>
        <mxCell id="w8XHvRQ3OK808wwk4YDb-259" value="" style="endArrow=classic;html=1;rounded=0;exitX=0.5;exitY=0;exitDx=0;exitDy=0;" edge="1" parent="1">
          <mxGeometry width="50" height="50" relative="1" as="geometry">
            <mxPoint x="1814.81" y="480" as="sourcePoint" />
            <mxPoint x="1814.81" y="510" as="targetPoint" />
          </mxGeometry>
        </mxCell>
        <mxCell id="w8XHvRQ3OK808wwk4YDb-260" value="" style="endArrow=classic;html=1;rounded=0;exitX=0.5;exitY=0;exitDx=0;exitDy=0;" edge="1" parent="1">
          <mxGeometry width="50" height="50" relative="1" as="geometry">
            <mxPoint x="1654.81" y="480" as="sourcePoint" />
            <mxPoint x="1654.81" y="510" as="targetPoint" />
          </mxGeometry>
        </mxCell>
        <mxCell id="w8XHvRQ3OK808wwk4YDb-261" value="" style="endArrow=classic;html=1;rounded=0;exitX=0.5;exitY=0;exitDx=0;exitDy=0;" edge="1" parent="1">
          <mxGeometry width="50" height="50" relative="1" as="geometry">
            <mxPoint x="1494.81" y="480" as="sourcePoint" />
            <mxPoint x="1494.81" y="510" as="targetPoint" />
          </mxGeometry>
        </mxCell>
        <mxCell id="w8XHvRQ3OK808wwk4YDb-262" value="" style="endArrow=classic;html=1;rounded=0;exitX=0.5;exitY=0;exitDx=0;exitDy=0;" edge="1" parent="1">
          <mxGeometry width="50" height="50" relative="1" as="geometry">
            <mxPoint x="1334.81" y="480" as="sourcePoint" />
            <mxPoint x="1334.81" y="510" as="targetPoint" />
          </mxGeometry>
        </mxCell>
        <mxCell id="w8XHvRQ3OK808wwk4YDb-263" value="" style="endArrow=classic;html=1;rounded=0;exitX=0.5;exitY=0;exitDx=0;exitDy=0;" edge="1" parent="1">
          <mxGeometry width="50" height="50" relative="1" as="geometry">
            <mxPoint x="1174.81" y="480" as="sourcePoint" />
            <mxPoint x="1174.81" y="510" as="targetPoint" />
          </mxGeometry>
        </mxCell>
        <mxCell id="w8XHvRQ3OK808wwk4YDb-264" value="" style="endArrow=classic;html=1;rounded=0;exitX=0.5;exitY=0;exitDx=0;exitDy=0;" edge="1" parent="1">
          <mxGeometry width="50" height="50" relative="1" as="geometry">
            <mxPoint x="1014.81" y="480" as="sourcePoint" />
            <mxPoint x="1014.81" y="510" as="targetPoint" />
          </mxGeometry>
        </mxCell>
        <mxCell id="w8XHvRQ3OK808wwk4YDb-266" value="" style="endArrow=classic;html=1;rounded=0;exitX=0.5;exitY=0;exitDx=0;exitDy=0;" edge="1" parent="1" source="w8XHvRQ3OK808wwk4YDb-247">
          <mxGeometry width="50" height="50" relative="1" as="geometry">
            <mxPoint x="1020" y="430" as="sourcePoint" />
            <mxPoint x="920" y="510" as="targetPoint" />
            <Array as="points">
              <mxPoint x="920" y="380" />
            </Array>
          </mxGeometry>
        </mxCell>
        <mxCell id="w8XHvRQ3OK808wwk4YDb-267" value="" style="endArrow=classic;html=1;rounded=0;exitX=0;exitY=0.5;exitDx=0;exitDy=0;entryX=0;entryY=0.5;entryDx=0;entryDy=0;fillColor=#d5e8d4;strokeColor=#82b366;" edge="1" parent="1" source="w8XHvRQ3OK808wwk4YDb-2" target="w8XHvRQ3OK808wwk4YDb-25">
          <mxGeometry width="50" height="50" relative="1" as="geometry">
            <mxPoint x="2760" y="420" as="sourcePoint" />
            <mxPoint x="2810" y="370" as="targetPoint" />
            <Array as="points">
              <mxPoint x="3020" y="345" />
              <mxPoint x="3020" y="470" />
            </Array>
          </mxGeometry>
        </mxCell>
        <mxCell id="w8XHvRQ3OK808wwk4YDb-268" value="" style="endArrow=classic;html=1;rounded=0;exitX=1;exitY=0.5;exitDx=0;exitDy=0;entryX=0;entryY=0.5;entryDx=0;entryDy=0;fillColor=#d5e8d4;strokeColor=#82b366;" edge="1" parent="1" source="w8XHvRQ3OK808wwk4YDb-25" target="w8XHvRQ3OK808wwk4YDb-27">
          <mxGeometry width="50" height="50" relative="1" as="geometry">
            <mxPoint x="2840" y="470" as="sourcePoint" />
            <mxPoint x="2890" y="420" as="targetPoint" />
            <Array as="points">
              <mxPoint x="2880" y="470" />
            </Array>
          </mxGeometry>
        </mxCell>
        <mxCell id="w8XHvRQ3OK808wwk4YDb-269" value="" style="endArrow=classic;html=1;rounded=0;exitX=0.5;exitY=0;exitDx=0;exitDy=0;entryX=0;entryY=0.5;entryDx=0;entryDy=0;fillColor=#d5e8d4;strokeColor=#82b366;" edge="1" parent="1" source="w8XHvRQ3OK808wwk4YDb-27" target="w8XHvRQ3OK808wwk4YDb-42">
          <mxGeometry width="50" height="50" relative="1" as="geometry">
            <mxPoint x="2840" y="470" as="sourcePoint" />
            <mxPoint x="2890" y="420" as="targetPoint" />
            <Array as="points">
              <mxPoint x="2850" y="380" />
              <mxPoint x="2850" y="470" />
            </Array>
          </mxGeometry>
        </mxCell>
        <mxCell id="w8XHvRQ3OK808wwk4YDb-270" value="" style="endArrow=classic;html=1;rounded=0;exitX=1;exitY=0.25;exitDx=0;exitDy=0;entryX=0;entryY=0.5;entryDx=0;entryDy=0;fillColor=#d5e8d4;strokeColor=#82b366;" edge="1" parent="1" source="w8XHvRQ3OK808wwk4YDb-42" target="w8XHvRQ3OK808wwk4YDb-44">
          <mxGeometry width="50" height="50" relative="1" as="geometry">
            <mxPoint x="2730" y="480" as="sourcePoint" />
            <mxPoint x="2780" y="430" as="targetPoint" />
            <Array as="points">
              <mxPoint x="2720" y="473" />
            </Array>
          </mxGeometry>
        </mxCell>
        <mxCell id="w8XHvRQ3OK808wwk4YDb-271" value="" style="endArrow=classic;html=1;rounded=0;exitX=0.5;exitY=0;exitDx=0;exitDy=0;entryX=0;entryY=0.5;entryDx=0;entryDy=0;fillColor=#d5e8d4;strokeColor=#82b366;" edge="1" parent="1" source="w8XHvRQ3OK808wwk4YDb-44" target="w8XHvRQ3OK808wwk4YDb-74">
          <mxGeometry width="50" height="50" relative="1" as="geometry">
            <mxPoint x="2660" y="470" as="sourcePoint" />
            <mxPoint x="2710" y="420" as="targetPoint" />
            <Array as="points">
              <mxPoint x="2690" y="380" />
              <mxPoint x="2690" y="470" />
            </Array>
          </mxGeometry>
        </mxCell>
        <mxCell id="w8XHvRQ3OK808wwk4YDb-272" value="" style="endArrow=classic;html=1;rounded=0;exitX=1;exitY=0.5;exitDx=0;exitDy=0;entryX=0;entryY=0.5;entryDx=0;entryDy=0;fillColor=#d5e8d4;strokeColor=#82b366;" edge="1" parent="1" source="w8XHvRQ3OK808wwk4YDb-74" target="w8XHvRQ3OK808wwk4YDb-76">
          <mxGeometry width="50" height="50" relative="1" as="geometry">
            <mxPoint x="2560" y="470" as="sourcePoint" />
            <mxPoint x="2610" y="420" as="targetPoint" />
            <Array as="points">
              <mxPoint x="2560" y="470" />
            </Array>
          </mxGeometry>
        </mxCell>
        <mxCell id="w8XHvRQ3OK808wwk4YDb-273" value="" style="endArrow=classic;html=1;rounded=0;exitX=0.5;exitY=0;exitDx=0;exitDy=0;entryX=0;entryY=0.5;entryDx=0;entryDy=0;fillColor=#d5e8d4;strokeColor=#82b366;" edge="1" parent="1" source="w8XHvRQ3OK808wwk4YDb-76" target="w8XHvRQ3OK808wwk4YDb-91">
          <mxGeometry width="50" height="50" relative="1" as="geometry">
            <mxPoint x="2460" y="470" as="sourcePoint" />
            <mxPoint x="2510" y="420" as="targetPoint" />
            <Array as="points">
              <mxPoint x="2530" y="380" />
              <mxPoint x="2530" y="470" />
            </Array>
          </mxGeometry>
        </mxCell>
        <mxCell id="w8XHvRQ3OK808wwk4YDb-274" value="" style="endArrow=classic;html=1;rounded=0;exitX=0.5;exitY=0;exitDx=0;exitDy=0;entryX=0;entryY=0.5;entryDx=0;entryDy=0;fillColor=#d5e8d4;strokeColor=#82b366;" edge="1" parent="1">
          <mxGeometry width="50" height="50" relative="1" as="geometry">
            <mxPoint x="2390" y="380" as="sourcePoint" />
            <mxPoint x="2310" y="470" as="targetPoint" />
            <Array as="points">
              <mxPoint x="2370" y="380" />
              <mxPoint x="2370" y="470" />
            </Array>
          </mxGeometry>
        </mxCell>
        <mxCell id="w8XHvRQ3OK808wwk4YDb-275" value="" style="endArrow=classic;html=1;rounded=0;exitX=0.5;exitY=0;exitDx=0;exitDy=0;entryX=0;entryY=0.5;entryDx=0;entryDy=0;fillColor=#d5e8d4;strokeColor=#82b366;" edge="1" parent="1">
          <mxGeometry width="50" height="50" relative="1" as="geometry">
            <mxPoint x="2230" y="380" as="sourcePoint" />
            <mxPoint x="2150" y="470" as="targetPoint" />
            <Array as="points">
              <mxPoint x="2210" y="380" />
              <mxPoint x="2210" y="470" />
            </Array>
          </mxGeometry>
        </mxCell>
        <mxCell id="w8XHvRQ3OK808wwk4YDb-276" value="" style="endArrow=classic;html=1;rounded=0;exitX=0.5;exitY=0;exitDx=0;exitDy=0;entryX=0;entryY=0.5;entryDx=0;entryDy=0;fillColor=#d5e8d4;strokeColor=#82b366;" edge="1" parent="1">
          <mxGeometry width="50" height="50" relative="1" as="geometry">
            <mxPoint x="2070" y="380" as="sourcePoint" />
            <mxPoint x="1990" y="470" as="targetPoint" />
            <Array as="points">
              <mxPoint x="2050" y="380" />
              <mxPoint x="2050" y="470" />
            </Array>
          </mxGeometry>
        </mxCell>
        <mxCell id="w8XHvRQ3OK808wwk4YDb-277" value="" style="endArrow=classic;html=1;rounded=0;exitX=0.5;exitY=0;exitDx=0;exitDy=0;entryX=0;entryY=0.5;entryDx=0;entryDy=0;fillColor=#d5e8d4;strokeColor=#82b366;" edge="1" parent="1">
          <mxGeometry width="50" height="50" relative="1" as="geometry">
            <mxPoint x="1910" y="380" as="sourcePoint" />
            <mxPoint x="1830" y="470" as="targetPoint" />
            <Array as="points">
              <mxPoint x="1890" y="380" />
              <mxPoint x="1890" y="470" />
            </Array>
          </mxGeometry>
        </mxCell>
        <mxCell id="w8XHvRQ3OK808wwk4YDb-278" value="" style="endArrow=classic;html=1;rounded=0;exitX=0.5;exitY=0;exitDx=0;exitDy=0;entryX=0;entryY=0.5;entryDx=0;entryDy=0;fillColor=#d5e8d4;strokeColor=#82b366;" edge="1" parent="1">
          <mxGeometry width="50" height="50" relative="1" as="geometry">
            <mxPoint x="1750" y="380" as="sourcePoint" />
            <mxPoint x="1670" y="470" as="targetPoint" />
            <Array as="points">
              <mxPoint x="1730" y="380" />
              <mxPoint x="1730" y="470" />
            </Array>
          </mxGeometry>
        </mxCell>
        <mxCell id="w8XHvRQ3OK808wwk4YDb-279" value="" style="endArrow=classic;html=1;rounded=0;exitX=0.5;exitY=0;exitDx=0;exitDy=0;entryX=0;entryY=0.5;entryDx=0;entryDy=0;fillColor=#d5e8d4;strokeColor=#82b366;" edge="1" parent="1">
          <mxGeometry width="50" height="50" relative="1" as="geometry">
            <mxPoint x="1590" y="380" as="sourcePoint" />
            <mxPoint x="1510" y="470" as="targetPoint" />
            <Array as="points">
              <mxPoint x="1570" y="380" />
              <mxPoint x="1570" y="470" />
            </Array>
          </mxGeometry>
        </mxCell>
        <mxCell id="w8XHvRQ3OK808wwk4YDb-280" value="" style="endArrow=classic;html=1;rounded=0;exitX=0.5;exitY=0;exitDx=0;exitDy=0;entryX=0;entryY=0.5;entryDx=0;entryDy=0;fillColor=#d5e8d4;strokeColor=#82b366;" edge="1" parent="1">
          <mxGeometry width="50" height="50" relative="1" as="geometry">
            <mxPoint x="1430" y="380" as="sourcePoint" />
            <mxPoint x="1350" y="470" as="targetPoint" />
            <Array as="points">
              <mxPoint x="1410" y="380" />
              <mxPoint x="1410" y="470" />
            </Array>
          </mxGeometry>
        </mxCell>
        <mxCell id="w8XHvRQ3OK808wwk4YDb-281" value="" style="endArrow=classic;html=1;rounded=0;exitX=0.5;exitY=0;exitDx=0;exitDy=0;entryX=0;entryY=0.5;entryDx=0;entryDy=0;fillColor=#d5e8d4;strokeColor=#82b366;" edge="1" parent="1">
          <mxGeometry width="50" height="50" relative="1" as="geometry">
            <mxPoint x="1270" y="380" as="sourcePoint" />
            <mxPoint x="1190" y="470" as="targetPoint" />
            <Array as="points">
              <mxPoint x="1250" y="380" />
              <mxPoint x="1250" y="470" />
            </Array>
          </mxGeometry>
        </mxCell>
        <mxCell id="w8XHvRQ3OK808wwk4YDb-282" value="" style="endArrow=classic;html=1;rounded=0;exitX=0.5;exitY=0;exitDx=0;exitDy=0;entryX=0;entryY=0.5;entryDx=0;entryDy=0;fillColor=#d5e8d4;strokeColor=#82b366;" edge="1" parent="1">
          <mxGeometry width="50" height="50" relative="1" as="geometry">
            <mxPoint x="1110" y="380" as="sourcePoint" />
            <mxPoint x="1030" y="470" as="targetPoint" />
            <Array as="points">
              <mxPoint x="1090" y="380" />
              <mxPoint x="1090" y="470" />
            </Array>
          </mxGeometry>
        </mxCell>
        <mxCell id="w8XHvRQ3OK808wwk4YDb-284" value="" style="endArrow=classic;html=1;rounded=0;exitX=1;exitY=0.5;exitDx=0;exitDy=0;entryX=0;entryY=0.5;entryDx=0;entryDy=0;fillColor=#d5e8d4;strokeColor=#82b366;" edge="1" parent="1">
          <mxGeometry width="50" height="50" relative="1" as="geometry">
            <mxPoint x="2440" y="470" as="sourcePoint" />
            <mxPoint x="2400" y="430" as="targetPoint" />
            <Array as="points">
              <mxPoint x="2400" y="470" />
            </Array>
          </mxGeometry>
        </mxCell>
        <mxCell id="w8XHvRQ3OK808wwk4YDb-285" value="" style="endArrow=classic;html=1;rounded=0;exitX=1;exitY=0.5;exitDx=0;exitDy=0;entryX=0;entryY=0.5;entryDx=0;entryDy=0;fillColor=#d5e8d4;strokeColor=#82b366;" edge="1" parent="1">
          <mxGeometry width="50" height="50" relative="1" as="geometry">
            <mxPoint x="2280" y="470" as="sourcePoint" />
            <mxPoint x="2240" y="430" as="targetPoint" />
            <Array as="points">
              <mxPoint x="2240" y="470" />
            </Array>
          </mxGeometry>
        </mxCell>
        <mxCell id="w8XHvRQ3OK808wwk4YDb-286" value="" style="endArrow=classic;html=1;rounded=0;exitX=1;exitY=0.5;exitDx=0;exitDy=0;entryX=0;entryY=0.5;entryDx=0;entryDy=0;fillColor=#d5e8d4;strokeColor=#82b366;" edge="1" parent="1">
          <mxGeometry width="50" height="50" relative="1" as="geometry">
            <mxPoint x="2120" y="470" as="sourcePoint" />
            <mxPoint x="2080" y="430" as="targetPoint" />
            <Array as="points">
              <mxPoint x="2080" y="470" />
            </Array>
          </mxGeometry>
        </mxCell>
        <mxCell id="w8XHvRQ3OK808wwk4YDb-287" value="" style="endArrow=classic;html=1;rounded=0;exitX=1;exitY=0.5;exitDx=0;exitDy=0;entryX=0;entryY=0.5;entryDx=0;entryDy=0;fillColor=#d5e8d4;strokeColor=#82b366;" edge="1" parent="1">
          <mxGeometry width="50" height="50" relative="1" as="geometry">
            <mxPoint x="1960" y="470" as="sourcePoint" />
            <mxPoint x="1920" y="430" as="targetPoint" />
            <Array as="points">
              <mxPoint x="1920" y="470" />
            </Array>
          </mxGeometry>
        </mxCell>
        <mxCell id="w8XHvRQ3OK808wwk4YDb-288" value="" style="endArrow=classic;html=1;rounded=0;exitX=1;exitY=0.5;exitDx=0;exitDy=0;entryX=0;entryY=0.5;entryDx=0;entryDy=0;fillColor=#d5e8d4;strokeColor=#82b366;" edge="1" parent="1">
          <mxGeometry width="50" height="50" relative="1" as="geometry">
            <mxPoint x="1800" y="470" as="sourcePoint" />
            <mxPoint x="1760" y="430" as="targetPoint" />
            <Array as="points">
              <mxPoint x="1760" y="470" />
            </Array>
          </mxGeometry>
        </mxCell>
        <mxCell id="w8XHvRQ3OK808wwk4YDb-289" value="" style="endArrow=classic;html=1;rounded=0;exitX=1;exitY=0.5;exitDx=0;exitDy=0;entryX=0;entryY=0.5;entryDx=0;entryDy=0;fillColor=#d5e8d4;strokeColor=#82b366;" edge="1" parent="1">
          <mxGeometry width="50" height="50" relative="1" as="geometry">
            <mxPoint x="1640" y="470" as="sourcePoint" />
            <mxPoint x="1600" y="430" as="targetPoint" />
            <Array as="points">
              <mxPoint x="1600" y="470" />
            </Array>
          </mxGeometry>
        </mxCell>
        <mxCell id="w8XHvRQ3OK808wwk4YDb-290" value="" style="endArrow=classic;html=1;rounded=0;exitX=1;exitY=0.5;exitDx=0;exitDy=0;entryX=0;entryY=0.5;entryDx=0;entryDy=0;fillColor=#d5e8d4;strokeColor=#82b366;" edge="1" parent="1">
          <mxGeometry width="50" height="50" relative="1" as="geometry">
            <mxPoint x="1480" y="470" as="sourcePoint" />
            <mxPoint x="1440" y="430" as="targetPoint" />
            <Array as="points">
              <mxPoint x="1440" y="470" />
            </Array>
          </mxGeometry>
        </mxCell>
        <mxCell id="w8XHvRQ3OK808wwk4YDb-291" value="" style="endArrow=classic;html=1;rounded=0;exitX=1;exitY=0.5;exitDx=0;exitDy=0;entryX=0;entryY=0.5;entryDx=0;entryDy=0;fillColor=#d5e8d4;strokeColor=#82b366;" edge="1" parent="1">
          <mxGeometry width="50" height="50" relative="1" as="geometry">
            <mxPoint x="1320" y="470" as="sourcePoint" />
            <mxPoint x="1280" y="430" as="targetPoint" />
            <Array as="points">
              <mxPoint x="1280" y="470" />
            </Array>
          </mxGeometry>
        </mxCell>
        <mxCell id="w8XHvRQ3OK808wwk4YDb-292" value="" style="endArrow=classic;html=1;rounded=0;exitX=1;exitY=0.5;exitDx=0;exitDy=0;entryX=0;entryY=0.5;entryDx=0;entryDy=0;fillColor=#d5e8d4;strokeColor=#82b366;" edge="1" parent="1">
          <mxGeometry width="50" height="50" relative="1" as="geometry">
            <mxPoint x="1160" y="470" as="sourcePoint" />
            <mxPoint x="1120" y="430" as="targetPoint" />
            <Array as="points">
              <mxPoint x="1120" y="470" />
            </Array>
          </mxGeometry>
        </mxCell>
        <mxCell id="w8XHvRQ3OK808wwk4YDb-293" value="" style="endArrow=classic;html=1;rounded=0;exitX=1;exitY=0.5;exitDx=0;exitDy=0;entryX=0;entryY=0.5;entryDx=0;entryDy=0;fillColor=#d5e8d4;strokeColor=#82b366;" edge="1" parent="1">
          <mxGeometry width="50" height="50" relative="1" as="geometry">
            <mxPoint x="1000" y="470" as="sourcePoint" />
            <mxPoint x="960" y="430" as="targetPoint" />
            <Array as="points">
              <mxPoint x="960" y="470" />
            </Array>
          </mxGeometry>
        </mxCell>
      </root>
    </mxGraphModel>
  </diagram>
</mxfile>
